<?xml version="1.0" encoding="UTF-8" standalone="no"?>
<!DOCTYPE svg PUBLIC "-//W3C//DTD SVG 1.1//EN" "http://www.w3.org/Graphics/SVG/1.1/DTD/svg11.dtd">
<svg width="100%" height="100%" viewBox="0 0 348 75" version="1.1" xmlns="http://www.w3.org/2000/svg" xmlns:xlink="http://www.w3.org/1999/xlink" xml:space="preserve" xmlns:serif="http://www.serif.com/" style="fill-rule:evenodd;clip-rule:evenodd;stroke-linejoin:round;stroke-miterlimit:2;">
    <g transform="matrix(1,0,0,1,-27.6487,-19.8089)">
        <path id="path0" d="M27.937,20.086C27.607,20.417 27.536,24.933 27.852,25.553C27.955,25.753 32.829,30.717 38.685,36.583C44.54,42.45 49.447,47.418 49.59,47.622C49.889,48.053 49.706,48.781 48.93,50.24C48.694,50.685 48.5,51.141 48.5,51.254C48.5,51.366 48.318,52.015 48.096,52.696C47.395,54.843 47.377,60.196 48.067,61.249C48.199,61.45 48.388,62.057 48.488,62.599C48.587,63.14 48.808,63.772 48.978,64.003C49.147,64.234 49.345,64.609 49.416,64.837C49.487,65.064 49.76,65.564 50.023,65.947C50.285,66.33 50.5,66.696 50.5,66.76C50.5,67.522 55.873,72.321 56.744,72.336C56.839,72.338 57.247,72.563 57.65,72.836C58.053,73.11 58.562,73.333 58.78,73.333C58.998,73.333 59.606,73.514 60.131,73.735C62.059,74.547 67.954,74.616 69.566,73.846C69.942,73.667 70.475,73.471 70.75,73.413C73.074,72.916 78.181,69.067 79.245,67.01C79.395,66.72 79.659,66.341 79.831,66.169C80.004,65.996 80.221,65.579 80.315,65.241C80.408,64.903 80.601,64.498 80.744,64.34C80.888,64.181 81.12,63.609 81.261,63.068C81.402,62.526 81.635,61.903 81.78,61.682C82.409,60.719 82.41,53.447 81.78,52.486C81.634,52.264 81.406,51.615 81.274,51.046C81.141,50.476 80.875,49.81 80.683,49.566C80.49,49.322 80.333,49.036 80.333,48.93C80.333,47.477 75.647,42.867 72.851,41.571C72.539,41.427 72.183,41.207 72.059,41.083C71.935,40.959 71.402,40.769 70.875,40.663C70.348,40.556 69.579,40.315 69.167,40.127C68.527,39.837 67.972,39.775 65.394,39.707L62.37,39.627L60.644,40.161C59.694,40.455 58.767,40.737 58.583,40.786C58.4,40.836 58.063,41.004 57.833,41.158C57.129,41.634 56.059,41.875 55.626,41.656C54.701,41.187 43,29.261 43,28.787L43,28.323L55.542,28.382C68.323,28.441 71.233,28.578 72.336,29.168C72.831,29.433 74.185,29.829 74.603,29.832C74.796,29.833 75.134,29.972 75.353,30.142C75.571,30.312 76.047,30.548 76.41,30.667C77.284,30.952 79.261,31.962 79.493,32.242C79.595,32.364 79.919,32.559 80.214,32.676C80.509,32.792 80.9,33.02 81.083,33.183C81.433,33.493 82.185,34.05 83.167,34.725C83.917,35.242 86.625,37.928 87.167,38.693C88.193,40.144 88.741,40.833 88.865,40.833C88.939,40.833 89,40.919 89,41.024C89,41.13 89.263,41.611 89.583,42.094C89.904,42.578 90.167,43.044 90.167,43.131C90.167,43.217 90.307,43.467 90.479,43.686C90.651,43.904 90.91,44.432 91.055,44.859C91.2,45.285 91.471,45.885 91.658,46.192C91.846,46.499 92.001,46.9 92.003,47.083C92.006,47.267 92.194,47.867 92.42,48.417C92.647,48.967 92.95,50.167 93.093,51.083C93.236,52 93.461,53.434 93.593,54.271C93.875,56.058 93.898,57.59 93.665,59.135C93.573,59.748 93.351,61.25 93.173,62.473C92.995,63.696 92.781,64.783 92.697,64.89C92.503,65.135 92.06,66.558 91.924,67.37C91.867,67.712 91.725,68.049 91.609,68.12C91.494,68.192 91.265,68.608 91.101,69.045C90.937,69.482 90.708,69.935 90.59,70.052C90.473,70.17 90.32,70.45 90.251,70.674C90.182,70.899 89.909,71.406 89.646,71.8C89.382,72.194 89.167,72.58 89.167,72.657C89.167,72.805 88.736,73.371 87.032,75.461C85.557,77.27 85.062,77.767 83.508,79C82.757,79.596 81.881,80.301 81.561,80.568C80.943,81.083 80.419,81.4 79.083,82.065C78.625,82.293 78.025,82.634 77.75,82.822C77.475,83.01 77.129,83.165 76.981,83.166C76.833,83.166 76.533,83.306 76.314,83.477C76.096,83.648 75.467,83.914 74.917,84.068C74.367,84.222 73.579,84.489 73.167,84.66C72.754,84.831 71.779,85.061 71,85.171C70.221,85.281 68.696,85.513 67.612,85.686C65.143,86.079 64.385,86.079 62.182,85.682C61.211,85.507 59.779,85.276 59.001,85.167C58.222,85.059 57.322,84.857 57.001,84.719C56.679,84.58 55.967,84.335 55.417,84.173C54.867,84.012 54.118,83.719 53.752,83.523C53.387,83.327 52.967,83.167 52.819,83.167C52.671,83.167 52.22,82.943 51.817,82.67C51.413,82.396 51.003,82.171 50.905,82.17C50.806,82.168 50.431,81.944 50.071,81.671C49.711,81.399 49.352,81.174 49.272,81.171C49.192,81.169 48.883,80.96 48.585,80.708C48.287,80.456 47.615,79.95 47.091,79.583C45.949,78.785 42.5,75.337 42.5,74.994C42.5,74.933 42.331,74.687 42.125,74.448C41.175,73.348 39.667,71.1 39.667,70.783C39.667,70.659 39.45,70.226 39.185,69.82C38.92,69.415 38.649,68.832 38.584,68.524C38.519,68.216 38.286,67.699 38.066,67.376C37.846,67.052 37.667,66.604 37.667,66.38C37.667,66.156 37.476,65.421 37.243,64.746C37.011,64.072 36.713,62.634 36.582,61.552C36.45,60.469 36.294,59.171 36.233,58.667C36.033,56.998 36.037,57 31.825,57C28.653,57 28.179,57.034 27.979,57.277C27.623,57.709 27.755,61.08 28.192,62.75C28.384,63.483 28.634,64.683 28.748,65.417C28.862,66.15 29.066,67.012 29.202,67.333C29.337,67.654 29.543,68.329 29.661,68.833C29.778,69.337 30.006,69.975 30.166,70.25C30.327,70.525 30.587,71.144 30.743,71.625C30.899,72.106 31.094,72.5 31.175,72.5C31.257,72.5 31.44,72.9 31.583,73.39C31.725,73.879 32.027,74.531 32.254,74.839C32.481,75.146 32.667,75.477 32.667,75.574C32.667,75.671 32.888,76.008 33.157,76.322C33.426,76.637 33.692,77.079 33.749,77.304C33.805,77.528 34.241,78.183 34.717,78.759C35.194,79.334 35.958,80.297 36.417,80.899C37.359,82.137 39.825,84.584 41.137,85.583C41.619,85.95 42.541,86.681 43.188,87.208C43.835,87.735 44.463,88.167 44.586,88.167C44.708,88.167 45.02,88.345 45.279,88.563C45.761,88.968 46.509,89.389 47.833,90.002C48.246,90.192 48.696,90.421 48.833,90.511C48.971,90.6 49.346,90.789 49.667,90.931C49.987,91.072 50.625,91.365 51.083,91.581C51.542,91.796 52.284,92.058 52.734,92.162C53.183,92.266 53.77,92.464 54.038,92.603C54.306,92.741 55.026,92.954 55.637,93.074C56.249,93.195 57.387,93.471 58.167,93.689C60.434,94.32 69.764,94.284 71.75,93.635C72.483,93.396 73.565,93.15 74.154,93.088C74.743,93.027 75.498,92.838 75.831,92.668C76.164,92.498 76.91,92.236 77.49,92.086C78.069,91.936 78.703,91.708 78.899,91.58C79.095,91.451 79.588,91.229 79.994,91.085C80.401,90.942 80.85,90.728 80.992,90.609C81.957,89.804 82.351,89.763 89.79,89.705L96.829,89.65L97.667,88.552L97.668,81.901C97.67,74.735 97.718,74.264 98.571,73.004C98.79,72.681 99.018,72.176 99.079,71.883C99.14,71.589 99.336,71.163 99.515,70.935C99.694,70.708 99.919,70.099 100.014,69.583C100.11,69.067 100.36,68.321 100.57,67.925C100.803,67.488 100.999,66.744 101.069,66.029C101.133,65.382 101.339,64.418 101.527,63.885C102.226,61.903 102.267,53.229 101.59,50.333C101.451,49.737 101.225,48.708 101.088,48.045C100.952,47.382 100.651,46.39 100.42,45.841C100.189,45.292 100,44.68 100,44.48C100,44.108 99.404,42.756 98.264,40.542C98.134,40.29 97.943,39.896 97.84,39.667C97.55,39.025 96.83,37.779 96.589,37.5C96.47,37.362 96.213,36.95 96.019,36.583C95.576,35.748 95.027,35.018 94.542,34.618C94.335,34.448 94.167,34.239 94.167,34.152C94.167,33.531 88.33,27.667 87.711,27.667C87.621,27.667 87.408,27.482 87.238,27.256C87.068,27.029 86.72,26.758 86.465,26.652C86.209,26.546 86,26.404 86,26.336C86,26.268 85.625,26.035 85.167,25.817C84.708,25.599 84.333,25.366 84.333,25.297C84.333,25.229 84.015,25.013 83.625,24.817C83.235,24.621 82.804,24.363 82.667,24.243C82.529,24.122 82.042,23.897 81.583,23.741C81.125,23.586 80.571,23.318 80.353,23.146C80.134,22.974 79.834,22.833 79.686,22.833C79.538,22.833 78.941,22.608 78.36,22.333C77.779,22.058 77.197,21.833 77.068,21.833C76.939,21.833 76.209,21.617 75.447,21.353C74.685,21.089 73.586,20.818 73.004,20.75C72.422,20.683 71.452,20.471 70.848,20.28C69.315,19.795 28.414,19.61 27.937,20.086M126.979,37.109C126.723,37.417 126.625,78.638 126.878,79.542L127.006,80L147.289,80L149.186,79.584C151.695,79.034 152.333,78.85 152.333,78.673C152.333,78.592 152.596,78.439 152.917,78.333C153.484,78.146 156.5,75.769 156.5,75.509C156.5,75.437 156.706,75.109 156.958,74.778C157.805,73.667 158.3,72.756 158.578,71.796C158.73,71.272 158.981,70.597 159.136,70.296C159.587,69.42 159.563,47.363 159.111,46.5C158.942,46.179 158.695,45.504 158.561,45C158.015,42.942 155.176,39.619 153.148,38.663C152.746,38.474 152.192,38.195 151.917,38.044C151.642,37.893 150.967,37.677 150.417,37.563C149.867,37.449 148.967,37.241 148.417,37.101C146.847,36.7 127.312,36.707 126.979,37.109M168.837,37.163C168.378,37.622 168.374,79.547 168.833,79.837C169.23,80.088 175.951,80.046 176.115,79.792C176.189,79.677 176.287,75.983 176.333,71.583L176.417,63.583L180.372,63.539C184.863,63.488 184.804,63.471 185.171,64.866C185.275,65.261 185.473,65.76 185.612,65.975C185.75,66.19 186.002,66.772 186.173,67.268C186.343,67.764 186.599,68.335 186.741,68.538C186.884,68.741 187.001,69.022 187.002,69.162C187.003,69.302 187.222,69.846 187.488,70.37C187.754,70.894 188.022,71.569 188.084,71.87C188.146,72.171 188.368,72.682 188.578,73.006C188.787,73.331 189.015,73.854 189.084,74.168C189.153,74.483 189.416,75.155 189.668,75.662C189.92,76.169 190.179,76.808 190.243,77.083C190.307,77.358 190.456,77.696 190.574,77.833C190.691,77.971 190.922,78.443 191.086,78.883C191.504,80.002 191.548,80.013 195.454,79.962L198.917,79.917L198.969,79.195C199.008,78.647 198.898,78.239 198.51,77.494C198.23,76.955 198,76.409 198,76.282C198,76.154 197.813,75.697 197.583,75.266C197.354,74.835 197.167,74.387 197.167,74.269C197.167,74.152 196.974,73.688 196.739,73.237C196.504,72.786 196.196,72.042 196.054,71.583C195.912,71.125 195.665,70.563 195.504,70.333C195.344,70.104 195.16,69.626 195.095,69.271C195.03,68.915 194.802,68.353 194.587,68.021C194.373,67.689 194.145,67.167 194.082,66.861C194.019,66.555 193.75,65.891 193.484,65.386C192.809,64.102 192.961,63.17 193.846,63.166C193.977,63.165 194.308,63.015 194.583,62.833C194.858,62.651 195.201,62.502 195.345,62.501C195.489,62.5 195.84,62.294 196.126,62.042C196.411,61.79 196.858,61.396 197.12,61.167C199.248,59.299 199.5,58.124 199.5,50.078C199.5,42.168 199.432,41.79 197.602,39.571C196.905,38.725 195.543,37.88 194.052,37.367L192.75,36.919L180.964,36.871C169.284,36.823 169.174,36.826 168.837,37.163M214.5,37.313C211.28,38.247 209.417,40.255 208.846,43.406C208.598,44.772 208.598,72.063 208.846,73.428C209.188,75.309 210.612,77.706 211.797,78.394C214.436,79.926 214.989,79.996 224.333,79.994C229.387,79.993 232.491,79.928 232.917,79.815C233.283,79.718 234.018,79.538 234.549,79.416C235.927,79.1 238.333,77.19 238.577,76.217C238.633,75.991 238.87,75.519 239.102,75.168C239.735,74.212 239.823,72.157 239.823,58.417C239.823,45.894 239.71,42.508 239.274,42.026C239.136,41.874 238.87,41.39 238.681,40.951C238.235,39.91 236.406,38.111 235.454,37.778C232.713,36.818 232.881,36.831 224.167,36.843L216.083,36.854L214.5,37.313M249.645,37.109C249.285,37.543 249.306,79.609 249.667,79.837C250.147,80.14 256.426,80.04 256.688,79.725C256.876,79.498 256.932,77.185 257,66.802C257.072,55.802 257.116,54.134 257.333,53.996C257.679,53.778 258.167,53.794 258.167,54.023C258.167,54.303 258.872,55.667 259.017,55.667C259.085,55.667 259.231,55.948 259.341,56.292C259.451,56.635 259.708,57.142 259.912,57.417C260.116,57.692 260.372,58.189 260.481,58.522C260.59,58.854 260.82,59.253 260.991,59.409C261.163,59.564 261.353,59.892 261.415,60.137C261.476,60.383 261.697,60.808 261.906,61.083C262.115,61.358 262.342,61.763 262.411,61.982C262.481,62.202 262.754,62.723 263.019,63.14C263.283,63.557 263.5,63.991 263.5,64.104C263.5,64.217 263.616,64.425 263.757,64.567C263.898,64.708 264.202,65.219 264.431,65.703C264.661,66.187 265.106,67.033 265.42,67.583C265.734,68.133 266.184,68.958 266.419,69.417C266.655,69.875 267.1,70.7 267.41,71.25C267.719,71.8 268.166,72.625 268.403,73.083C268.641,73.542 269.088,74.367 269.398,74.917C269.708,75.467 270.124,76.251 270.321,76.661C270.518,77.07 270.783,77.52 270.91,77.661C271.037,77.801 271.192,78.122 271.255,78.373C271.317,78.624 271.64,79.093 271.971,79.415L272.574,80L280.008,80L280.171,79.572C280.507,78.689 280.38,37.595 280.04,37.175C279.684,36.735 273.401,36.698 272.966,37.133C272.794,37.305 272.733,39.939 272.667,49.983C272.58,63.103 272.577,63.167 271.918,63.167C271.804,63.167 271.547,62.81 271.346,62.375C270.798,61.187 270.046,59.777 269.833,59.537C269.729,59.419 269.489,58.95 269.3,58.495C269.11,58.039 268.899,57.667 268.829,57.667C268.76,57.667 268.58,57.359 268.429,56.983C268.279,56.607 267.971,56.028 267.745,55.695C267.518,55.362 267.333,54.998 267.333,54.886C267.333,54.775 267.114,54.358 266.845,53.96C266.577,53.563 266.306,53.034 266.244,52.785C266.182,52.537 266.067,52.333 265.99,52.333C265.912,52.333 265.698,51.993 265.514,51.576C265.33,51.159 265.036,50.616 264.861,50.368C264.687,50.12 264.488,49.729 264.419,49.5C264.351,49.271 264.116,48.845 263.897,48.553C263.679,48.261 263.5,47.948 263.5,47.858C263.5,47.627 262.94,46.669 262.805,46.668C262.743,46.667 262.6,46.385 262.488,46.042C262.375,45.698 262.115,45.192 261.911,44.917C261.706,44.642 261.484,44.229 261.417,44C261.35,43.771 261.127,43.358 260.923,43.083C260.718,42.808 260.458,42.302 260.346,41.958C260.233,41.615 260.081,41.333 260.009,41.333C259.936,41.333 259.673,40.902 259.423,40.375C258.525,38.48 258.075,37.716 257.601,37.278L257.118,36.833L253.496,36.833C250.33,36.833 249.845,36.868 249.645,37.109M290.363,36.971C290.242,37.052 290.075,37.41 289.992,37.767C289.751,38.808 289.807,78.618 290.051,79.333L290.25,79.917L293.417,79.966C295.158,79.992 296.827,79.97 297.125,79.916L297.667,79.818L297.667,58.502C297.667,41.633 297.623,37.158 297.458,37.052C297.169,36.865 290.635,36.791 290.363,36.971M307.667,36.953C307.529,37.006 307.362,37.132 307.294,37.233C307.015,37.651 307.147,79.457 307.429,79.738C307.736,80.045 334.684,80.141 335.167,79.837C335.497,79.629 335.64,72.953 335.323,72.57C335.157,72.37 333.586,72.333 325.255,72.333C315.905,72.333 315.37,72.317 315.109,72.029C314.707,71.584 314.692,63.109 315.093,62.537L315.352,62.167L325.134,62.164C330.997,62.163 335.017,62.098 335.167,62.004C335.497,61.795 335.64,55.12 335.323,54.737C335.157,54.537 333.586,54.5 325.255,54.5C315.905,54.5 315.37,54.484 315.109,54.195C314.741,53.789 314.686,45.163 315.05,44.861C315.198,44.739 318.421,44.666 325.223,44.632C333.852,44.59 335.201,44.55 335.342,44.333C335.54,44.031 335.48,37.257 335.278,37.055C335.123,36.901 308.061,36.801 307.667,36.953M349.822,37.302C348.613,37.612 347.881,37.899 347.488,38.216C345.708,39.658 344.769,40.935 344.506,42.273C344.418,42.719 344.268,43.345 344.173,43.666C343.787,44.963 343.955,54.482 344.394,56.204C345.04,58.736 347.011,61.073 348.849,61.485C349.254,61.576 349.864,61.766 350.204,61.908C350.731,62.128 351.918,62.167 358.203,62.169C368.285,62.173 367.389,61.719 367.473,66.858C367.57,72.751 368.667,72.225 356.035,72.333C347.643,72.405 346.299,72.451 346.163,72.667C345.954,72.998 345.954,78.426 346.164,79.156C346.411,80.02 346.109,79.995 356.436,79.997L366.122,80L367.965,79.584C369.993,79.126 370.667,78.909 370.667,78.711C370.667,78.64 370.91,78.477 371.208,78.349C372.045,77.991 373.931,75.946 374.268,75.032C374.427,74.602 374.661,74.126 374.79,73.974C375.415,73.235 375.549,62.521 374.955,60.833C374.362,59.149 374.221,58.856 373.746,58.306C373.473,57.99 373.065,57.485 372.838,57.184C372.612,56.883 372.143,56.491 371.797,56.315C371.45,56.138 371.167,55.923 371.167,55.836C371.167,55.75 370.848,55.598 370.458,55.498C370.069,55.399 369.375,55.153 368.917,54.952C368.106,54.598 367.879,54.586 360.667,54.54C352.122,54.486 352.698,54.546 352.116,53.657L351.667,52.97L351.667,46.118L352.256,45.398L352.845,44.679L362.731,44.631C371.013,44.591 372.662,44.545 372.903,44.345C373.276,44.035 373.243,37.508 372.867,37.133C372.694,36.961 370.494,36.91 362.117,36.884L351.583,36.851L349.822,37.302M148.548,45.019C149.762,45.628 150.302,46.14 150.952,47.296L151.583,48.417L151.633,57.795C151.664,63.777 151.62,67.513 151.509,68.109C151.179,69.894 149.654,71.569 147.869,72.106C146.686,72.462 135.385,72.434 134.87,72.074L134.5,71.814L134.5,58.441C134.5,48.261 134.548,45.019 134.7,44.867C135.11,44.457 147.704,44.595 148.548,45.019M191.511,44.839C191.987,45.094 192.016,55.209 191.542,55.439C190.892,55.754 176.778,55.711 176.546,55.393C176.323,55.089 176.221,45.486 176.434,44.93C176.558,44.609 190.919,44.523 191.511,44.839M230.964,44.927C231.858,45.553 231.833,45.168 231.833,58.484C231.833,67.352 231.78,70.935 231.644,71.234C231.21,72.186 230.804,72.245 224.333,72.303C217.529,72.363 217.355,72.339 216.792,71.285L216.417,70.583L216.417,58.417C216.417,45.336 216.383,45.908 217.208,44.875C217.484,44.529 230.466,44.578 230.964,44.927M66.948,48.316C68.561,48.708 69.036,48.891 69.319,49.233C69.441,49.38 69.651,49.5 69.787,49.5C70.082,49.5 72.333,51.638 72.333,51.918C72.333,52.026 72.484,52.251 72.668,52.418C72.852,52.585 73.086,53.027 73.188,53.402C73.29,53.777 73.523,54.561 73.707,55.145C74.063,56.277 74.07,58.585 73.719,59.032C73.625,59.152 73.457,59.625 73.345,60.083C73.004,61.484 71.263,63.764 70.059,64.386C69.797,64.522 69.44,64.79 69.265,64.983C69.091,65.176 68.775,65.333 68.564,65.333C68.352,65.333 67.745,65.501 67.215,65.705C65.495,66.368 61.765,65.865 60.27,64.769C56.187,61.775 54.738,56.321 57.102,52.841C57.321,52.519 57.5,52.171 57.5,52.066C57.5,51.226 61.118,48.672 62.667,48.419C63.079,48.351 63.529,48.232 63.667,48.153C64.091,47.911 65.583,47.985 66.948,48.316" style="fill:rgb(245,245,245);"/>
    </g>
</svg>
