<?xml version="1.0" encoding="UTF-8" standalone="no"?>
<!DOCTYPE svg PUBLIC "-//W3C//DTD SVG 1.1//EN" "http://www.w3.org/Graphics/SVG/1.1/DTD/svg11.dtd">
<svg width="100%" height="100%" viewBox="0 0 75 75" version="1.1" xmlns="http://www.w3.org/2000/svg" xmlns:xlink="http://www.w3.org/1999/xlink" xml:space="preserve" xmlns:serif="http://www.serif.com/" style="fill-rule:evenodd;clip-rule:evenodd;stroke-linejoin:round;stroke-miterlimit:2;">
    <clipPath id="_clip1">
        <rect id="path0" x="-0" y="0" width="74.64" height="74.334"/>
    </clipPath>
    <g clip-path="url(#_clip1)">
        <path d="M0.288,0.277C-0.042,0.608 -0.113,5.124 0.203,5.744C0.306,5.944 5.18,10.908 11.036,16.774C16.891,22.641 21.798,27.609 21.941,27.813C22.24,28.244 22.057,28.972 21.281,30.431C21.045,30.876 20.851,31.332 20.851,31.445C20.851,31.557 20.669,32.206 20.447,32.887C19.746,35.034 19.728,40.387 20.418,41.44C20.55,41.641 20.739,42.248 20.839,42.79C20.938,43.331 21.159,43.963 21.329,44.194C21.498,44.425 21.696,44.8 21.767,45.028C21.838,45.255 22.111,45.755 22.374,46.138C22.636,46.521 22.851,46.887 22.851,46.951C22.851,47.713 28.224,52.512 29.095,52.527C29.19,52.529 29.598,52.754 30.001,53.027C30.404,53.301 30.913,53.524 31.131,53.524C31.349,53.524 31.957,53.705 32.482,53.926C34.41,54.738 40.305,54.807 41.917,54.037C42.293,53.858 42.826,53.662 43.101,53.604C45.425,53.107 50.532,49.258 51.596,47.201C51.746,46.911 52.01,46.532 52.182,46.36C52.355,46.187 52.572,45.77 52.666,45.432C52.759,45.094 52.952,44.689 53.095,44.531C53.239,44.372 53.471,43.8 53.612,43.259C53.753,42.717 53.986,42.094 54.131,41.873C54.76,40.91 54.761,33.638 54.131,32.677C53.985,32.455 53.757,31.806 53.625,31.237C53.492,30.667 53.226,30.001 53.034,29.757C52.841,29.513 52.684,29.227 52.684,29.121C52.684,27.668 47.998,23.058 45.202,21.762C44.89,21.618 44.534,21.398 44.41,21.274C44.286,21.15 43.753,20.96 43.226,20.854C42.699,20.747 41.93,20.506 41.518,20.318C40.878,20.028 40.323,19.966 37.745,19.898L34.721,19.818L32.995,20.352C32.045,20.646 31.118,20.928 30.934,20.977C30.751,21.027 30.414,21.195 30.184,21.349C29.48,21.825 28.41,22.066 27.977,21.847C27.052,21.378 15.351,9.452 15.351,8.978L15.351,8.514L27.893,8.573C40.674,8.632 43.584,8.769 44.687,9.359C45.182,9.624 46.536,10.02 46.954,10.023C47.147,10.024 47.485,10.163 47.704,10.333C47.922,10.503 48.398,10.739 48.761,10.858C49.635,11.143 51.612,12.153 51.844,12.433C51.946,12.555 52.27,12.75 52.565,12.867C52.86,12.983 53.251,13.211 53.434,13.374C53.784,13.684 54.536,14.241 55.518,14.916C56.268,15.433 58.976,18.119 59.518,18.884C60.544,20.335 61.092,21.024 61.216,21.024C61.29,21.024 61.351,21.11 61.351,21.215C61.351,21.321 61.614,21.802 61.934,22.285C62.255,22.769 62.518,23.235 62.518,23.322C62.518,23.408 62.658,23.658 62.83,23.877C63.002,24.095 63.261,24.623 63.406,25.05C63.551,25.476 63.822,26.076 64.009,26.383C64.197,26.69 64.352,27.091 64.354,27.274C64.357,27.458 64.545,28.058 64.771,28.608C64.998,29.158 65.301,30.358 65.444,31.274C65.587,32.191 65.812,33.625 65.944,34.462C66.226,36.249 66.249,37.781 66.016,39.326C65.924,39.939 65.702,41.441 65.524,42.664C65.346,43.887 65.132,44.974 65.048,45.081C64.854,45.326 64.411,46.749 64.275,47.561C64.218,47.903 64.076,48.24 63.96,48.311C63.845,48.383 63.616,48.799 63.452,49.236C63.288,49.673 63.059,50.126 62.941,50.243C62.824,50.361 62.671,50.641 62.602,50.865C62.533,51.09 62.26,51.597 61.997,51.991C61.733,52.385 61.518,52.771 61.518,52.848C61.518,52.996 61.087,53.562 59.383,55.652C57.908,57.461 57.413,57.958 55.859,59.191C55.108,59.787 54.232,60.492 53.912,60.759C53.294,61.274 52.77,61.591 51.434,62.256C50.976,62.484 50.376,62.825 50.101,63.013C49.826,63.201 49.48,63.356 49.332,63.357C49.184,63.357 48.884,63.497 48.665,63.668C48.447,63.839 47.818,64.105 47.268,64.259C46.718,64.413 45.93,64.68 45.518,64.851C45.105,65.022 44.13,65.252 43.351,65.362C42.572,65.472 41.047,65.704 39.963,65.877C37.494,66.27 36.736,66.27 34.533,65.873C33.562,65.698 32.13,65.467 31.352,65.358C30.573,65.25 29.673,65.048 29.352,64.91C29.03,64.771 28.318,64.526 27.768,64.364C27.218,64.203 26.469,63.91 26.103,63.714C25.738,63.518 25.318,63.358 25.17,63.358C25.022,63.358 24.571,63.134 24.168,62.861C23.764,62.587 23.354,62.362 23.256,62.361C23.157,62.359 22.782,62.135 22.422,61.862C22.062,61.59 21.703,61.365 21.623,61.362C21.543,61.36 21.234,61.151 20.936,60.899C20.638,60.647 19.966,60.141 19.442,59.774C18.3,58.976 14.851,55.528 14.851,55.185C14.851,55.124 14.682,54.878 14.476,54.639C13.526,53.539 12.018,51.291 12.018,50.974C12.018,50.85 11.801,50.417 11.536,50.011C11.271,49.606 11,49.023 10.935,48.715C10.87,48.407 10.637,47.89 10.417,47.567C10.197,47.243 10.018,46.795 10.018,46.571C10.018,46.347 9.827,45.612 9.594,44.937C9.362,44.263 9.064,42.825 8.933,41.743C8.801,40.66 8.645,39.362 8.584,38.858C8.384,37.189 8.388,37.191 4.176,37.191C1.004,37.191 0.53,37.225 0.33,37.468C-0.026,37.9 0.106,41.271 0.543,42.941C0.735,43.674 0.985,44.874 1.099,45.608C1.213,46.341 1.417,47.203 1.553,47.524C1.688,47.845 1.894,48.52 2.012,49.024C2.129,49.528 2.357,50.166 2.517,50.441C2.678,50.716 2.938,51.335 3.094,51.816C3.25,52.297 3.445,52.691 3.526,52.691C3.608,52.691 3.791,53.091 3.934,53.581C4.076,54.07 4.378,54.722 4.605,55.03C4.832,55.337 5.018,55.668 5.018,55.765C5.018,55.862 5.239,56.199 5.508,56.513C5.777,56.828 6.043,57.27 6.1,57.495C6.156,57.719 6.592,58.374 7.068,58.95C7.545,59.525 8.309,60.488 8.768,61.09C9.71,62.328 12.176,64.775 13.488,65.774C13.97,66.141 14.892,66.872 15.539,67.399C16.186,67.926 16.814,68.358 16.937,68.358C17.059,68.358 17.371,68.536 17.63,68.754C18.112,69.159 18.86,69.58 20.184,70.193C20.597,70.383 21.047,70.612 21.184,70.702C21.322,70.791 21.697,70.98 22.018,71.122C22.338,71.263 22.976,71.556 23.434,71.772C23.893,71.987 24.635,72.249 25.085,72.353C25.534,72.457 26.121,72.655 26.389,72.794C26.657,72.932 27.377,73.145 27.988,73.265C28.6,73.386 29.738,73.662 30.518,73.88C32.785,74.511 42.115,74.475 44.101,73.826C44.834,73.587 45.916,73.341 46.505,73.279C47.094,73.218 47.849,73.029 48.182,72.859C48.515,72.689 49.261,72.427 49.841,72.277C50.42,72.127 51.054,71.899 51.25,71.771C51.446,71.642 51.939,71.42 52.345,71.276C52.752,71.133 53.201,70.919 53.343,70.8C54.308,69.995 54.702,69.954 62.141,69.896L69.18,69.841L70.018,68.743L70.019,62.092C70.021,54.926 70.069,54.455 70.922,53.195C71.141,52.872 71.369,52.367 71.43,52.074C71.491,51.78 71.687,51.354 71.866,51.126C72.045,50.899 72.27,50.29 72.365,49.774C72.461,49.258 72.711,48.512 72.921,48.116C73.154,47.679 73.35,46.935 73.42,46.22C73.484,45.573 73.69,44.609 73.878,44.076C74.577,42.094 74.618,33.42 73.941,30.524C73.802,29.928 73.576,28.899 73.439,28.236C73.303,27.573 73.002,26.581 72.771,26.032C72.54,25.483 72.351,24.871 72.351,24.671C72.351,24.299 71.755,22.947 70.615,20.733C70.485,20.481 70.294,20.087 70.191,19.858C69.901,19.216 69.181,17.97 68.94,17.691C68.821,17.553 68.564,17.141 68.37,16.774C67.927,15.939 67.378,15.209 66.893,14.809C66.686,14.639 66.518,14.43 66.518,14.343C66.518,13.722 60.681,7.858 60.062,7.858C59.972,7.858 59.759,7.673 59.589,7.447C59.419,7.22 59.071,6.949 58.816,6.843C58.56,6.737 58.351,6.595 58.351,6.527C58.351,6.459 57.976,6.226 57.518,6.008C57.059,5.79 56.684,5.557 56.684,5.488C56.684,5.42 56.366,5.204 55.976,5.008C55.586,4.812 55.155,4.554 55.018,4.434C54.88,4.313 54.393,4.088 53.934,3.932C53.476,3.777 52.922,3.509 52.704,3.337C52.485,3.165 52.185,3.024 52.037,3.024C51.889,3.024 51.292,2.799 50.711,2.524C50.13,2.249 49.548,2.024 49.419,2.024C49.29,2.024 48.56,1.808 47.798,1.544C47.036,1.28 45.937,1.009 45.355,0.941C44.773,0.874 43.803,0.662 43.199,0.471C41.666,-0.014 0.765,-0.199 0.288,0.277ZM39.299,28.507C40.912,28.899 41.387,29.082 41.67,29.424C41.792,29.571 42.002,29.691 42.138,29.691C42.433,29.691 44.684,31.829 44.684,32.109C44.684,32.217 44.835,32.442 45.019,32.609C45.203,32.776 45.437,33.218 45.539,33.593C45.641,33.968 45.874,34.752 46.058,35.336C46.414,36.468 46.421,38.776 46.07,39.223C45.976,39.343 45.808,39.816 45.696,40.274C45.355,41.675 43.614,43.955 42.41,44.577C42.148,44.713 41.791,44.981 41.616,45.174C41.442,45.367 41.126,45.524 40.915,45.524C40.703,45.524 40.096,45.692 39.566,45.896C37.846,46.559 34.116,46.056 32.621,44.96C28.538,41.966 27.089,36.512 29.453,33.032C29.672,32.71 29.851,32.362 29.851,32.257C29.851,31.417 33.469,28.863 35.018,28.61C35.43,28.542 35.88,28.423 36.018,28.344C36.442,28.102 37.934,28.176 39.299,28.507Z"/>
    </g>
</svg>
