<?xml version="1.0" encoding="UTF-8" standalone="no"?>
<!DOCTYPE svg PUBLIC "-//W3C//DTD SVG 1.1//EN" "http://www.w3.org/Graphics/SVG/1.1/DTD/svg11.dtd">
<svg width="100%" height="100%" viewBox="0 0 249 44" version="1.1" xmlns="http://www.w3.org/2000/svg" xmlns:xlink="http://www.w3.org/1999/xlink" xml:space="preserve" xmlns:serif="http://www.serif.com/" style="fill-rule:evenodd;clip-rule:evenodd;stroke-linejoin:round;stroke-miterlimit:2;">
    <g id="path0" transform="matrix(1,0,0,1,-99.0818,-16.9949)">
        <path d="M280.018,17.144C279.88,17.197 279.713,17.323 279.645,17.424C279.366,17.842 279.498,59.648 279.78,59.929C280.087,60.236 307.035,60.332 307.518,60.028C307.848,59.82 307.991,53.144 307.674,52.761C307.508,52.561 305.937,52.524 297.606,52.524C288.256,52.524 287.721,52.508 287.46,52.22C287.058,51.775 287.043,43.3 287.444,42.728L287.703,42.358L297.485,42.355C303.348,42.354 307.368,42.289 307.518,42.195C307.848,41.986 307.991,35.311 307.674,34.928C307.508,34.728 305.937,34.691 297.606,34.691C288.256,34.691 287.721,34.675 287.46,34.386C287.092,33.98 287.037,25.354 287.401,25.052C287.549,24.93 290.772,24.857 297.574,24.823C306.203,24.781 307.552,24.741 307.693,24.524C307.891,24.222 307.831,17.448 307.629,17.246C307.474,17.092 280.412,16.992 280.018,17.144ZM221.996,17.3C221.636,17.734 221.657,59.8 222.018,60.028C222.498,60.331 228.777,60.231 229.039,59.916C229.227,59.689 229.283,57.376 229.351,46.993C229.423,35.993 229.467,34.325 229.684,34.187C230.03,33.969 230.518,33.985 230.518,34.214C230.518,34.494 231.223,35.858 231.368,35.858C231.436,35.858 231.582,36.139 231.692,36.483C231.802,36.826 232.059,37.333 232.263,37.608C232.467,37.883 232.723,38.38 232.832,38.713C232.941,39.045 233.171,39.444 233.342,39.6C233.514,39.755 233.704,40.083 233.766,40.328C233.827,40.574 234.048,40.999 234.257,41.274C234.466,41.549 234.693,41.954 234.762,42.173C234.832,42.393 235.105,42.914 235.37,43.331C235.634,43.748 235.851,44.182 235.851,44.295C235.851,44.408 235.967,44.616 236.108,44.758C236.249,44.899 236.553,45.41 236.782,45.894C237.012,46.378 237.457,47.224 237.771,47.774C238.085,48.324 238.535,49.149 238.77,49.608C239.006,50.066 239.451,50.891 239.761,51.441C240.07,51.991 240.517,52.816 240.754,53.274C240.992,53.733 241.439,54.558 241.749,55.108C242.059,55.658 242.475,56.442 242.672,56.852C242.869,57.261 243.134,57.711 243.261,57.852C243.388,57.992 243.543,58.313 243.606,58.564C243.668,58.815 243.991,59.284 244.322,59.606L244.925,60.191L252.359,60.191L252.522,59.763C252.858,58.88 252.731,17.786 252.391,17.366C252.035,16.926 245.752,16.889 245.317,17.324C245.145,17.496 245.084,20.13 245.018,30.174C244.931,43.294 244.928,43.358 244.269,43.358C244.155,43.358 243.898,43.001 243.697,42.566C243.149,41.378 242.397,39.968 242.184,39.728C242.08,39.61 241.84,39.141 241.651,38.686C241.461,38.23 241.25,37.858 241.18,37.858C241.111,37.858 240.931,37.55 240.78,37.174C240.63,36.798 240.322,36.219 240.096,35.886C239.869,35.553 239.684,35.189 239.684,35.077C239.684,34.966 239.465,34.549 239.196,34.151C238.928,33.754 238.657,33.225 238.595,32.976C238.533,32.728 238.418,32.524 238.341,32.524C238.263,32.524 238.049,32.184 237.865,31.767C237.681,31.35 237.387,30.807 237.212,30.559C237.038,30.311 236.839,29.92 236.77,29.691C236.702,29.462 236.467,29.036 236.248,28.744C236.03,28.452 235.851,28.139 235.851,28.049C235.851,27.818 235.291,26.86 235.156,26.859C235.094,26.858 234.951,26.576 234.839,26.233C234.726,25.889 234.466,25.383 234.262,25.108C234.057,24.833 233.835,24.42 233.768,24.191C233.701,23.962 233.478,23.549 233.274,23.274C233.069,22.999 232.809,22.493 232.697,22.149C232.584,21.806 232.432,21.524 232.36,21.524C232.287,21.524 232.024,21.093 231.774,20.566C230.876,18.671 230.426,17.907 229.952,17.469L229.469,17.024L225.847,17.024C222.681,17.024 222.196,17.059 221.996,17.3ZM141.188,17.354C140.729,17.813 140.725,59.738 141.184,60.028C141.581,60.279 148.302,60.237 148.466,59.983C148.54,59.868 148.638,56.174 148.684,51.774L148.768,43.774L152.723,43.73C157.214,43.679 157.155,43.662 157.522,45.057C157.626,45.452 157.824,45.951 157.963,46.166C158.101,46.381 158.353,46.963 158.524,47.459C158.694,47.955 158.95,48.526 159.092,48.729C159.235,48.932 159.352,49.213 159.353,49.353C159.354,49.493 159.573,50.037 159.839,50.561C160.105,51.085 160.373,51.76 160.435,52.061C160.497,52.362 160.719,52.873 160.929,53.197C161.138,53.522 161.366,54.045 161.435,54.359C161.504,54.674 161.767,55.346 162.019,55.853C162.271,56.36 162.53,56.999 162.594,57.274C162.658,57.549 162.807,57.887 162.925,58.024C163.042,58.162 163.273,58.634 163.437,59.074C163.855,60.193 163.899,60.204 167.805,60.153L171.268,60.108L171.32,59.386C171.359,58.838 171.249,58.43 170.861,57.685C170.581,57.146 170.351,56.6 170.351,56.473C170.351,56.345 170.164,55.888 169.934,55.457C169.705,55.026 169.518,54.578 169.518,54.46C169.518,54.343 169.325,53.879 169.09,53.428C168.855,52.977 168.547,52.233 168.405,51.774C168.263,51.316 168.016,50.754 167.855,50.524C167.695,50.295 167.511,49.817 167.446,49.462C167.381,49.106 167.153,48.544 166.938,48.212C166.724,47.88 166.496,47.358 166.433,47.052C166.37,46.746 166.101,46.082 165.835,45.577C165.16,44.293 165.312,43.361 166.197,43.357C166.328,43.356 166.659,43.206 166.934,43.024C167.209,42.842 167.552,42.693 167.696,42.692C167.84,42.691 168.191,42.485 168.477,42.233C168.762,41.981 169.209,41.587 169.471,41.358C171.599,39.49 171.851,38.315 171.851,30.269C171.851,22.359 171.783,21.981 169.953,19.762C169.256,18.916 167.894,18.071 166.403,17.558L165.101,17.11L153.315,17.062C141.635,17.014 141.525,17.017 141.188,17.354ZM99.33,17.3C99.074,17.608 98.976,58.829 99.229,59.733L99.357,60.191L119.64,60.191L121.537,59.775C124.046,59.225 124.684,59.041 124.684,58.864C124.684,58.783 124.947,58.63 125.268,58.524C125.835,58.337 128.851,55.96 128.851,55.7C128.851,55.628 129.057,55.3 129.309,54.969C130.156,53.858 130.651,52.947 130.929,51.987C131.081,51.463 131.332,50.788 131.487,50.487C131.938,49.611 131.914,27.554 131.462,26.691C131.293,26.37 131.046,25.695 130.912,25.191C130.366,23.133 127.527,19.81 125.499,18.854C125.097,18.665 124.543,18.386 124.268,18.235C123.993,18.084 123.318,17.868 122.768,17.754C122.218,17.64 121.318,17.432 120.768,17.292C119.198,16.891 99.663,16.898 99.33,17.3ZM322.173,17.493C320.964,17.803 320.232,18.09 319.839,18.407C318.059,19.849 317.12,21.126 316.857,22.464C316.769,22.91 316.619,23.536 316.524,23.857C316.138,25.154 316.306,34.673 316.745,36.395C317.391,38.927 319.362,41.264 321.2,41.676C321.605,41.767 322.215,41.957 322.555,42.099C323.082,42.319 324.269,42.358 330.554,42.36C340.636,42.364 339.74,41.91 339.824,47.049C339.921,52.942 341.018,52.416 328.386,52.524C319.994,52.596 318.65,52.642 318.514,52.858C318.305,53.189 318.305,58.617 318.515,59.347C318.762,60.211 318.46,60.186 328.787,60.188L338.473,60.191L340.316,59.775C342.344,59.317 343.018,59.1 343.018,58.902C343.018,58.831 343.261,58.668 343.559,58.54C344.396,58.182 346.282,56.137 346.619,55.223C346.778,54.793 347.012,54.317 347.141,54.165C347.766,53.426 347.9,42.712 347.306,41.024C346.713,39.34 346.572,39.047 346.097,38.497C345.824,38.181 345.416,37.676 345.189,37.375C344.963,37.074 344.494,36.682 344.148,36.506C343.801,36.329 343.518,36.114 343.518,36.027C343.518,35.941 343.199,35.789 342.809,35.689C342.42,35.59 341.726,35.344 341.268,35.143C340.457,34.789 340.23,34.777 333.018,34.731C324.473,34.677 325.049,34.737 324.467,33.848L324.018,33.161L324.018,26.309L325.196,24.87L335.082,24.822C343.364,24.782 345.013,24.736 345.254,24.536C345.627,24.226 345.594,17.699 345.218,17.324C345.045,17.152 342.845,17.101 334.468,17.075L323.934,17.042L322.173,17.493ZM186.851,17.504C183.631,18.438 181.768,20.446 181.197,23.597C180.949,24.963 180.949,52.254 181.197,53.619C181.539,55.5 182.963,57.897 184.148,58.585C186.787,60.117 187.34,60.187 196.684,60.185C201.738,60.184 204.842,60.119 205.268,60.006C205.634,59.909 206.369,59.729 206.9,59.607C208.278,59.291 210.684,57.381 210.928,56.408C210.984,56.182 211.221,55.71 211.453,55.359C212.086,54.403 212.174,52.348 212.174,38.608C212.174,26.085 212.061,22.699 211.625,22.217C211.487,22.065 211.221,21.581 211.032,21.142C210.586,20.101 208.757,18.302 207.805,17.969C205.064,17.009 205.232,17.022 196.518,17.034L188.434,17.045L186.851,17.504ZM262.714,17.162C262.593,17.243 262.426,17.601 262.343,17.958C262.102,18.999 262.158,58.809 262.402,59.524L262.601,60.108L265.768,60.157C267.509,60.183 269.178,60.161 269.476,60.107L270.018,60.009L270.018,38.693C270.018,21.824 269.974,17.349 269.809,17.243C269.52,17.056 262.986,16.982 262.714,17.162ZM120.899,25.21C122.113,25.819 122.653,26.331 123.303,27.487L123.934,28.608L123.984,37.986C124.015,43.968 123.971,47.704 123.86,48.3C123.53,50.085 122.005,51.76 120.22,52.297C119.037,52.653 107.736,52.625 107.221,52.265L106.851,52.005L106.851,38.632C106.851,28.452 106.899,25.21 107.051,25.058C107.461,24.648 120.055,24.786 120.899,25.21ZM203.315,25.118C204.209,25.744 204.184,25.359 204.184,38.675C204.184,47.543 204.131,51.126 203.995,51.425C203.561,52.377 203.155,52.436 196.684,52.494C189.88,52.554 189.706,52.53 189.143,51.476L188.768,50.774L188.768,38.608C188.768,25.527 188.734,26.099 189.559,25.066C189.835,24.72 202.817,24.769 203.315,25.118ZM163.862,25.03C164.338,25.285 164.367,35.4 163.893,35.63C163.243,35.945 149.129,35.902 148.897,35.584C148.674,35.28 148.572,25.677 148.785,25.121C148.909,24.8 163.27,24.714 163.862,25.03Z" style="fill:white;"/>
    </g>
</svg>
