<?xml version="1.0" encoding="UTF-8" standalone="no"?>
<!DOCTYPE svg PUBLIC "-//W3C//DTD SVG 1.1//EN" "http://www.w3.org/Graphics/SVG/1.1/DTD/svg11.dtd">
<svg width="100%" height="100%" viewBox="0 0 249 44" version="1.1" xmlns="http://www.w3.org/2000/svg" xmlns:xlink="http://www.w3.org/1999/xlink" xml:space="preserve" xmlns:serif="http://www.serif.com/" style="fill-rule:evenodd;clip-rule:evenodd;stroke-linejoin:round;stroke-miterlimit:2;">
    <g transform="matrix(1,0,0,1,-126.731,-36.8038)">
        <path id="path0" d="M307.667,36.953C307.529,37.006 307.362,37.132 307.294,37.233C307.015,37.651 307.147,79.457 307.429,79.738C307.736,80.045 334.684,80.141 335.167,79.837C335.497,79.629 335.64,72.953 335.323,72.57C335.157,72.37 333.586,72.333 325.255,72.333C315.905,72.333 315.37,72.317 315.109,72.029C314.707,71.584 314.692,63.109 315.093,62.537L315.352,62.167L325.134,62.164C330.997,62.163 335.017,62.098 335.167,62.004C335.497,61.795 335.64,55.12 335.323,54.737C335.157,54.537 333.586,54.5 325.255,54.5C315.905,54.5 315.37,54.484 315.109,54.195C314.741,53.789 314.686,45.163 315.05,44.861C315.198,44.739 318.421,44.666 325.223,44.632C333.852,44.59 335.201,44.55 335.342,44.333C335.54,44.031 335.48,37.257 335.278,37.055C335.123,36.901 308.061,36.801 307.667,36.953ZM249.645,37.109C249.285,37.543 249.306,79.609 249.667,79.837C250.147,80.14 256.426,80.04 256.688,79.725C256.876,79.498 256.932,77.185 257,66.802C257.072,55.802 257.116,54.134 257.333,53.996C257.679,53.778 258.167,53.794 258.167,54.023C258.167,54.303 258.872,55.667 259.017,55.667C259.085,55.667 259.231,55.948 259.341,56.292C259.451,56.635 259.708,57.142 259.912,57.417C260.116,57.692 260.372,58.189 260.481,58.522C260.59,58.854 260.82,59.253 260.991,59.409C261.163,59.564 261.353,59.892 261.415,60.137C261.476,60.383 261.697,60.808 261.906,61.083C262.115,61.358 262.342,61.763 262.411,61.982C262.481,62.202 262.754,62.723 263.019,63.14C263.283,63.557 263.5,63.991 263.5,64.104C263.5,64.217 263.616,64.425 263.757,64.567C263.898,64.708 264.202,65.219 264.431,65.703C264.661,66.187 265.106,67.033 265.42,67.583C265.734,68.133 266.184,68.958 266.419,69.417C266.655,69.875 267.1,70.7 267.41,71.25C267.719,71.8 268.166,72.625 268.403,73.083C268.641,73.542 269.088,74.367 269.398,74.917C269.708,75.467 270.124,76.251 270.321,76.661C270.518,77.07 270.783,77.52 270.91,77.661C271.037,77.801 271.192,78.122 271.255,78.373C271.317,78.624 271.64,79.093 271.971,79.415L272.574,80L280.008,80L280.171,79.572C280.507,78.689 280.38,37.595 280.04,37.175C279.684,36.735 273.401,36.698 272.966,37.133C272.794,37.305 272.733,39.939 272.667,49.983C272.58,63.103 272.577,63.167 271.918,63.167C271.804,63.167 271.547,62.81 271.346,62.375C270.798,61.187 270.046,59.777 269.833,59.537C269.729,59.419 269.489,58.95 269.3,58.495C269.11,58.039 268.899,57.667 268.829,57.667C268.76,57.667 268.58,57.359 268.429,56.983C268.279,56.607 267.971,56.028 267.745,55.695C267.518,55.362 267.333,54.998 267.333,54.886C267.333,54.775 267.114,54.358 266.845,53.96C266.577,53.563 266.306,53.034 266.244,52.785C266.182,52.537 266.067,52.333 265.99,52.333C265.912,52.333 265.698,51.993 265.514,51.576C265.33,51.159 265.036,50.616 264.861,50.368C264.687,50.12 264.488,49.729 264.419,49.5C264.351,49.271 264.116,48.845 263.897,48.553C263.679,48.261 263.5,47.948 263.5,47.858C263.5,47.627 262.94,46.669 262.805,46.668C262.743,46.667 262.6,46.385 262.488,46.042C262.375,45.698 262.115,45.192 261.911,44.917C261.706,44.642 261.484,44.229 261.417,44C261.35,43.771 261.127,43.358 260.923,43.083C260.718,42.808 260.458,42.302 260.346,41.958C260.233,41.615 260.081,41.333 260.009,41.333C259.936,41.333 259.673,40.902 259.423,40.375C258.525,38.48 258.075,37.716 257.601,37.278L257.118,36.833L253.496,36.833C250.33,36.833 249.845,36.868 249.645,37.109ZM168.837,37.163C168.378,37.622 168.374,79.547 168.833,79.837C169.23,80.088 175.951,80.046 176.115,79.792C176.189,79.677 176.287,75.983 176.333,71.583L176.417,63.583L180.372,63.539C184.863,63.488 184.804,63.471 185.171,64.866C185.275,65.261 185.473,65.76 185.612,65.975C185.75,66.19 186.002,66.772 186.173,67.268C186.343,67.764 186.599,68.335 186.741,68.538C186.884,68.741 187.001,69.022 187.002,69.162C187.003,69.302 187.222,69.846 187.488,70.37C187.754,70.894 188.022,71.569 188.084,71.87C188.146,72.171 188.368,72.682 188.578,73.006C188.787,73.331 189.015,73.854 189.084,74.168C189.153,74.483 189.416,75.155 189.668,75.662C189.92,76.169 190.179,76.808 190.243,77.083C190.307,77.358 190.456,77.696 190.574,77.833C190.691,77.971 190.922,78.443 191.086,78.883C191.504,80.002 191.548,80.013 195.454,79.962L198.917,79.917L198.969,79.195C199.008,78.647 198.898,78.239 198.51,77.494C198.23,76.955 198,76.409 198,76.282C198,76.154 197.813,75.697 197.583,75.266C197.354,74.835 197.167,74.387 197.167,74.269C197.167,74.152 196.974,73.688 196.739,73.237C196.504,72.786 196.196,72.042 196.054,71.583C195.912,71.125 195.665,70.563 195.504,70.333C195.344,70.104 195.16,69.626 195.095,69.271C195.03,68.915 194.802,68.353 194.587,68.021C194.373,67.689 194.145,67.167 194.082,66.861C194.019,66.555 193.75,65.891 193.484,65.386C192.809,64.102 192.961,63.17 193.846,63.166C193.977,63.165 194.308,63.015 194.583,62.833C194.858,62.651 195.201,62.502 195.345,62.501C195.489,62.5 195.84,62.294 196.126,62.042C196.411,61.79 196.858,61.396 197.12,61.167C199.248,59.299 199.5,58.124 199.5,50.078C199.5,42.168 199.432,41.79 197.602,39.571C196.905,38.725 195.543,37.88 194.052,37.367L192.75,36.919L180.964,36.871C169.284,36.823 169.174,36.826 168.837,37.163ZM126.979,37.109C126.723,37.417 126.625,78.638 126.878,79.542L127.006,80L147.289,80L149.186,79.584C151.695,79.034 152.333,78.85 152.333,78.673C152.333,78.592 152.596,78.439 152.917,78.333C153.484,78.146 156.5,75.769 156.5,75.509C156.5,75.437 156.706,75.109 156.958,74.778C157.805,73.667 158.3,72.756 158.578,71.796C158.73,71.272 158.981,70.597 159.136,70.296C159.587,69.42 159.563,47.363 159.111,46.5C158.942,46.179 158.695,45.504 158.561,45C158.015,42.942 155.176,39.619 153.148,38.663C152.746,38.474 152.192,38.195 151.917,38.044C151.642,37.893 150.967,37.677 150.417,37.563C149.867,37.449 148.967,37.241 148.417,37.101C146.847,36.7 127.312,36.707 126.979,37.109ZM349.822,37.302C348.613,37.612 347.881,37.899 347.488,38.216C345.708,39.658 344.769,40.935 344.506,42.273C344.418,42.719 344.268,43.345 344.173,43.666C343.787,44.963 343.955,54.482 344.394,56.204C345.04,58.736 347.011,61.073 348.849,61.485C349.254,61.576 349.864,61.766 350.204,61.908C350.731,62.128 351.918,62.167 358.203,62.169C368.285,62.173 367.389,61.719 367.473,66.858C367.57,72.751 368.667,72.225 356.035,72.333C347.643,72.405 346.299,72.451 346.163,72.667C345.954,72.998 345.954,78.426 346.164,79.156C346.411,80.02 346.109,79.995 356.436,79.997L366.122,80L367.965,79.584C369.993,79.126 370.667,78.909 370.667,78.711C370.667,78.64 370.91,78.477 371.208,78.349C372.045,77.991 373.931,75.946 374.268,75.032C374.427,74.602 374.661,74.126 374.79,73.974C375.415,73.235 375.549,62.521 374.955,60.833C374.362,59.149 374.221,58.856 373.746,58.306C373.473,57.99 373.065,57.485 372.838,57.184C372.612,56.883 372.143,56.491 371.797,56.315C371.45,56.138 371.167,55.923 371.167,55.836C371.167,55.75 370.848,55.598 370.458,55.498C370.069,55.399 369.375,55.153 368.917,54.952C368.106,54.598 367.879,54.586 360.667,54.54C352.122,54.486 352.698,54.546 352.116,53.657L351.667,52.97L351.667,46.118L352.845,44.679L362.731,44.631C371.013,44.591 372.662,44.545 372.903,44.345C373.276,44.035 373.243,37.508 372.867,37.133C372.694,36.961 370.494,36.91 362.117,36.884L351.583,36.851L349.822,37.302ZM214.5,37.313C211.28,38.247 209.417,40.255 208.846,43.406C208.598,44.772 208.598,72.063 208.846,73.428C209.188,75.309 210.612,77.706 211.797,78.394C214.436,79.926 214.989,79.996 224.333,79.994C229.387,79.993 232.491,79.928 232.917,79.815C233.283,79.718 234.018,79.538 234.549,79.416C235.927,79.1 238.333,77.19 238.577,76.217C238.633,75.991 238.87,75.519 239.102,75.168C239.735,74.212 239.823,72.157 239.823,58.417C239.823,45.894 239.71,42.508 239.274,42.026C239.136,41.874 238.87,41.39 238.681,40.951C238.235,39.91 236.406,38.111 235.454,37.778C232.713,36.818 232.881,36.831 224.167,36.843L216.083,36.854L214.5,37.313ZM290.363,36.971C290.242,37.052 290.075,37.41 289.992,37.767C289.751,38.808 289.807,78.618 290.051,79.333L290.25,79.917L293.417,79.966C295.158,79.992 296.827,79.97 297.125,79.916L297.667,79.818L297.667,58.502C297.667,41.633 297.623,37.158 297.458,37.052C297.169,36.865 290.635,36.791 290.363,36.971ZM148.548,45.019C149.762,45.628 150.302,46.14 150.952,47.296L151.583,48.417L151.633,57.795C151.664,63.777 151.62,67.513 151.509,68.109C151.179,69.894 149.654,71.569 147.869,72.106C146.686,72.462 135.385,72.434 134.87,72.074L134.5,71.814L134.5,58.441C134.5,48.261 134.548,45.019 134.7,44.867C135.11,44.457 147.704,44.595 148.548,45.019ZM230.964,44.927C231.858,45.553 231.833,45.168 231.833,58.484C231.833,67.352 231.78,70.935 231.644,71.234C231.21,72.186 230.804,72.245 224.333,72.303C217.529,72.363 217.355,72.339 216.792,71.285L216.417,70.583L216.417,58.417C216.417,45.336 216.383,45.908 217.208,44.875C217.484,44.529 230.466,44.578 230.964,44.927ZM191.511,44.839C191.987,45.094 192.016,55.209 191.542,55.439C190.892,55.754 176.778,55.711 176.546,55.393C176.323,55.089 176.221,45.486 176.434,44.93C176.558,44.609 190.919,44.523 191.511,44.839Z" style="fill:rgb(245,245,245);"/>
    </g>
</svg>
