<?xml version="1.0" encoding="UTF-8" standalone="no"?>
<!DOCTYPE svg PUBLIC "-//W3C//DTD SVG 1.1//EN" "http://www.w3.org/Graphics/SVG/1.1/DTD/svg11.dtd">
<svg width="100%" height="100%" viewBox="0 0 75 75" version="1.1" xmlns="http://www.w3.org/2000/svg" xmlns:xlink="http://www.w3.org/1999/xlink" xml:space="preserve" xmlns:serif="http://www.serif.com/" style="fill-rule:evenodd;clip-rule:evenodd;stroke-linejoin:round;stroke-miterlimit:2;">
    <g transform="matrix(1,0,0,1,-27.6487,-19.8089)">
        <path id="path0" d="M27.937,20.086C27.607,20.417 27.536,24.933 27.852,25.553C27.955,25.753 32.829,30.717 38.685,36.583C44.54,42.45 49.447,47.418 49.59,47.622C49.889,48.053 49.706,48.781 48.93,50.24C48.694,50.685 48.5,51.141 48.5,51.254C48.5,51.366 48.318,52.015 48.096,52.696C47.395,54.843 47.377,60.196 48.067,61.249C48.199,61.45 48.388,62.057 48.488,62.599C48.587,63.14 48.808,63.772 48.978,64.003C49.147,64.234 49.345,64.609 49.416,64.837C49.487,65.064 49.76,65.564 50.023,65.947C50.285,66.33 50.5,66.696 50.5,66.76C50.5,67.522 55.873,72.321 56.744,72.336C56.839,72.338 57.247,72.563 57.65,72.836C58.053,73.11 58.562,73.333 58.78,73.333C58.998,73.333 59.606,73.514 60.131,73.735C62.059,74.547 67.954,74.616 69.566,73.846C69.942,73.667 70.475,73.471 70.75,73.413C73.074,72.916 78.181,69.067 79.245,67.01C79.395,66.72 79.659,66.341 79.831,66.169C80.004,65.996 80.221,65.579 80.315,65.241C80.408,64.903 80.601,64.498 80.744,64.34C80.888,64.181 81.12,63.609 81.261,63.068C81.402,62.526 81.635,61.903 81.78,61.682C82.409,60.719 82.41,53.447 81.78,52.486C81.634,52.264 81.406,51.615 81.274,51.046C81.141,50.476 80.875,49.81 80.683,49.566C80.49,49.322 80.333,49.036 80.333,48.93C80.333,47.477 75.647,42.867 72.851,41.571C72.539,41.427 72.183,41.207 72.059,41.083C71.935,40.959 71.402,40.769 70.875,40.663C70.348,40.556 69.579,40.315 69.167,40.127C68.527,39.837 67.972,39.775 65.394,39.707L62.37,39.627L60.644,40.161C59.694,40.455 58.767,40.737 58.583,40.786C58.4,40.836 58.063,41.004 57.833,41.158C57.129,41.634 56.059,41.875 55.626,41.656C54.701,41.187 43,29.261 43,28.787L43,28.323L55.542,28.382C68.323,28.441 71.233,28.578 72.336,29.168C72.831,29.433 74.185,29.829 74.603,29.832C74.796,29.833 75.134,29.972 75.353,30.142C75.571,30.312 76.047,30.548 76.41,30.667C77.284,30.952 79.261,31.962 79.493,32.242C79.595,32.364 79.919,32.559 80.214,32.676C80.509,32.792 80.9,33.02 81.083,33.183C81.433,33.493 82.185,34.05 83.167,34.725C83.917,35.242 86.625,37.928 87.167,38.693C88.193,40.144 88.741,40.833 88.865,40.833C88.939,40.833 89,40.919 89,41.024C89,41.13 89.263,41.611 89.583,42.094C89.904,42.578 90.167,43.044 90.167,43.131C90.167,43.217 90.307,43.467 90.479,43.686C90.651,43.904 90.91,44.432 91.055,44.859C91.2,45.285 91.471,45.885 91.658,46.192C91.846,46.499 92.001,46.9 92.003,47.083C92.006,47.267 92.194,47.867 92.42,48.417C92.647,48.967 92.95,50.167 93.093,51.083C93.236,52 93.461,53.434 93.593,54.271C93.875,56.058 93.898,57.59 93.665,59.135C93.573,59.748 93.351,61.25 93.173,62.473C92.995,63.696 92.781,64.783 92.697,64.89C92.503,65.135 92.06,66.558 91.924,67.37C91.867,67.712 91.725,68.049 91.609,68.12C91.494,68.192 91.265,68.608 91.101,69.045C90.937,69.482 90.708,69.935 90.59,70.052C90.473,70.17 90.32,70.45 90.251,70.674C90.182,70.899 89.909,71.406 89.646,71.8C89.382,72.194 89.167,72.58 89.167,72.657C89.167,72.805 88.736,73.371 87.032,75.461C85.557,77.27 85.062,77.767 83.508,79C82.757,79.596 81.881,80.301 81.561,80.568C80.943,81.083 80.419,81.4 79.083,82.065C78.625,82.293 78.025,82.634 77.75,82.822C77.475,83.01 77.129,83.165 76.981,83.166C76.833,83.166 76.533,83.306 76.314,83.477C76.096,83.648 75.467,83.914 74.917,84.068C74.367,84.222 73.579,84.489 73.167,84.66C72.754,84.831 71.779,85.061 71,85.171C70.221,85.281 68.696,85.513 67.612,85.686C65.143,86.079 64.385,86.079 62.182,85.682C61.211,85.507 59.779,85.276 59.001,85.167C58.222,85.059 57.322,84.857 57.001,84.719C56.679,84.58 55.967,84.335 55.417,84.173C54.867,84.012 54.118,83.719 53.752,83.523C53.387,83.327 52.967,83.167 52.819,83.167C52.671,83.167 52.22,82.943 51.817,82.67C51.413,82.396 51.003,82.171 50.905,82.17C50.806,82.168 50.431,81.944 50.071,81.671C49.711,81.399 49.352,81.174 49.272,81.171C49.192,81.169 48.883,80.96 48.585,80.708C48.287,80.456 47.615,79.95 47.091,79.583C45.949,78.785 42.5,75.337 42.5,74.994C42.5,74.933 42.331,74.687 42.125,74.448C41.175,73.348 39.667,71.1 39.667,70.783C39.667,70.659 39.45,70.226 39.185,69.82C38.92,69.415 38.649,68.832 38.584,68.524C38.519,68.216 38.286,67.699 38.066,67.376C37.846,67.052 37.667,66.604 37.667,66.38C37.667,66.156 37.476,65.421 37.243,64.746C37.011,64.072 36.713,62.634 36.582,61.552C36.45,60.469 36.294,59.171 36.233,58.667C36.033,56.998 36.037,57 31.825,57C28.653,57 28.179,57.034 27.979,57.277C27.623,57.709 27.755,61.08 28.192,62.75C28.384,63.483 28.634,64.683 28.748,65.417C28.862,66.15 29.066,67.012 29.202,67.333C29.337,67.654 29.543,68.329 29.661,68.833C29.778,69.337 30.006,69.975 30.166,70.25C30.327,70.525 30.587,71.144 30.743,71.625C30.899,72.106 31.094,72.5 31.175,72.5C31.257,72.5 31.44,72.9 31.583,73.39C31.725,73.879 32.027,74.531 32.254,74.839C32.481,75.146 32.667,75.477 32.667,75.574C32.667,75.671 32.888,76.008 33.157,76.322C33.426,76.637 33.692,77.079 33.749,77.304C33.805,77.528 34.241,78.183 34.717,78.759C35.194,79.334 35.958,80.297 36.417,80.899C37.359,82.137 39.825,84.584 41.137,85.583C41.619,85.95 42.541,86.681 43.188,87.208C43.835,87.735 44.463,88.167 44.586,88.167C44.708,88.167 45.02,88.345 45.279,88.563C45.761,88.968 46.509,89.389 47.833,90.002C48.246,90.192 48.696,90.421 48.833,90.511C48.971,90.6 49.346,90.789 49.667,90.931C49.987,91.072 50.625,91.365 51.083,91.581C51.542,91.796 52.284,92.058 52.734,92.162C53.183,92.266 53.77,92.464 54.038,92.603C54.306,92.741 55.026,92.954 55.637,93.074C56.249,93.195 57.387,93.471 58.167,93.689C60.434,94.32 69.764,94.284 71.75,93.635C72.483,93.396 73.565,93.15 74.154,93.088C74.743,93.027 75.498,92.838 75.831,92.668C76.164,92.498 76.91,92.236 77.49,92.086C78.069,91.936 78.703,91.708 78.899,91.58C79.095,91.451 79.588,91.229 79.994,91.085C80.401,90.942 80.85,90.728 80.992,90.609C81.957,89.804 82.351,89.763 89.79,89.705L96.829,89.65L97.667,88.552L97.668,81.901C97.67,74.735 97.718,74.264 98.571,73.004C98.79,72.681 99.018,72.176 99.079,71.883C99.14,71.589 99.336,71.163 99.515,70.935C99.694,70.708 99.919,70.099 100.014,69.583C100.11,69.067 100.36,68.321 100.57,67.925C100.803,67.488 100.999,66.744 101.069,66.029C101.133,65.382 101.339,64.418 101.527,63.885C102.226,61.903 102.267,53.229 101.59,50.333C101.451,49.737 101.225,48.708 101.088,48.045C100.952,47.382 100.651,46.39 100.42,45.841C100.189,45.292 100,44.68 100,44.48C100,44.108 99.404,42.756 98.264,40.542C98.134,40.29 97.943,39.896 97.84,39.667C97.55,39.025 96.83,37.779 96.589,37.5C96.47,37.362 96.213,36.95 96.019,36.583C95.576,35.748 95.027,35.018 94.542,34.618C94.335,34.448 94.167,34.239 94.167,34.152C94.167,33.531 88.33,27.667 87.711,27.667C87.621,27.667 87.408,27.482 87.238,27.256C87.068,27.029 86.72,26.758 86.465,26.652C86.209,26.546 86,26.404 86,26.336C86,26.268 85.625,26.035 85.167,25.817C84.708,25.599 84.333,25.366 84.333,25.297C84.333,25.229 84.015,25.013 83.625,24.817C83.235,24.621 82.804,24.363 82.667,24.243C82.529,24.122 82.042,23.897 81.583,23.741C81.125,23.586 80.571,23.318 80.353,23.146C80.134,22.974 79.834,22.833 79.686,22.833C79.538,22.833 78.941,22.608 78.36,22.333C77.779,22.058 77.197,21.833 77.068,21.833C76.939,21.833 76.209,21.617 75.447,21.353C74.685,21.089 73.586,20.818 73.004,20.75C72.422,20.683 71.452,20.471 70.848,20.28C69.315,19.795 28.414,19.61 27.937,20.086ZM66.948,48.316C68.561,48.708 69.036,48.891 69.319,49.233C69.441,49.38 69.651,49.5 69.787,49.5C70.082,49.5 72.333,51.638 72.333,51.918C72.333,52.026 72.484,52.251 72.668,52.418C72.852,52.585 73.086,53.027 73.188,53.402C73.29,53.777 73.523,54.561 73.707,55.145C74.063,56.277 74.07,58.585 73.719,59.032C73.625,59.152 73.457,59.625 73.345,60.083C73.004,61.484 71.263,63.764 70.059,64.386C69.797,64.522 69.44,64.79 69.265,64.983C69.091,65.176 68.775,65.333 68.564,65.333C68.352,65.333 67.745,65.501 67.215,65.705C65.495,66.368 61.765,65.865 60.27,64.769C56.187,61.775 54.738,56.321 57.102,52.841C57.321,52.519 57.5,52.171 57.5,52.066C57.5,51.226 61.118,48.672 62.667,48.419C63.079,48.351 63.529,48.232 63.667,48.153C64.091,47.911 65.583,47.985 66.948,48.316Z" style="fill:rgb(245,245,245);"/>
    </g>
</svg>
