<svg id="svg" version="1.1" xmlns="http://www.w3.org/2000/svg" xmlns:xlink="http://www.w3.org/1999/xlink" width="400" height="114.85148514851485" viewBox="0, 0, 400,114.85148514851485"><g id="svgg"><path id="path0" d="M27.937 20.086 C 27.607 20.417,27.536 24.933,27.852 25.553 C 27.955 25.753,32.829 30.717,38.685 36.583 C 44.540 42.450,49.447 47.418,49.590 47.622 C 49.889 48.053,49.706 48.781,48.930 50.240 C 48.694 50.685,48.500 51.141,48.500 51.254 C 48.500 51.366,48.318 52.015,48.096 52.696 C 47.395 54.843,47.377 60.196,48.067 61.249 C 48.199 61.450,48.388 62.057,48.488 62.599 C 48.587 63.140,48.808 63.772,48.978 64.003 C 49.147 64.234,49.345 64.609,49.416 64.837 C 49.487 65.064,49.760 65.564,50.023 65.947 C 50.285 66.330,50.500 66.696,50.500 66.760 C 50.500 67.522,55.873 72.321,56.744 72.336 C 56.839 72.338,57.247 72.563,57.650 72.836 C 58.053 73.110,58.562 73.333,58.780 73.333 C 58.998 73.333,59.606 73.514,60.131 73.735 C 62.059 74.547,67.954 74.616,69.566 73.846 C 69.942 73.667,70.475 73.471,70.750 73.413 C 73.074 72.916,78.181 69.067,79.245 67.010 C 79.395 66.720,79.659 66.341,79.831 66.169 C 80.004 65.996,80.221 65.579,80.315 65.241 C 80.408 64.903,80.601 64.498,80.744 64.340 C 80.888 64.181,81.120 63.609,81.261 63.068 C 81.402 62.526,81.635 61.903,81.780 61.682 C 82.409 60.719,82.410 53.447,81.780 52.486 C 81.634 52.264,81.406 51.615,81.274 51.046 C 81.141 50.476,80.875 49.810,80.683 49.566 C 80.490 49.322,80.333 49.036,80.333 48.930 C 80.333 47.477,75.647 42.867,72.851 41.571 C 72.539 41.427,72.183 41.207,72.059 41.083 C 71.935 40.959,71.402 40.769,70.875 40.663 C 70.348 40.556,69.579 40.315,69.167 40.127 C 68.527 39.837,67.972 39.775,65.394 39.707 L 62.370 39.627 60.644 40.161 C 59.694 40.455,58.767 40.737,58.583 40.786 C 58.400 40.836,58.063 41.004,57.833 41.158 C 57.129 41.634,56.059 41.875,55.626 41.656 C 54.701 41.187,43.000 29.261,43.000 28.787 L 43.000 28.323 55.542 28.382 C 68.323 28.441,71.233 28.578,72.336 29.168 C 72.831 29.433,74.185 29.829,74.603 29.832 C 74.796 29.833,75.134 29.972,75.353 30.142 C 75.571 30.312,76.047 30.548,76.410 30.667 C 77.284 30.952,79.261 31.962,79.493 32.242 C 79.595 32.364,79.919 32.559,80.214 32.676 C 80.509 32.792,80.900 33.020,81.083 33.183 C 81.433 33.493,82.185 34.050,83.167 34.725 C 83.917 35.242,86.625 37.928,87.167 38.693 C 88.193 40.144,88.741 40.833,88.865 40.833 C 88.939 40.833,89.000 40.919,89.000 41.024 C 89.000 41.130,89.263 41.611,89.583 42.094 C 89.904 42.578,90.167 43.044,90.167 43.131 C 90.167 43.217,90.307 43.467,90.479 43.686 C 90.651 43.904,90.910 44.432,91.055 44.859 C 91.200 45.285,91.471 45.885,91.658 46.192 C 91.846 46.499,92.001 46.900,92.003 47.083 C 92.006 47.267,92.194 47.867,92.420 48.417 C 92.647 48.967,92.950 50.167,93.093 51.083 C 93.236 52.000,93.461 53.434,93.593 54.271 C 93.875 56.058,93.898 57.590,93.665 59.135 C 93.573 59.748,93.351 61.250,93.173 62.473 C 92.995 63.696,92.781 64.783,92.697 64.890 C 92.503 65.135,92.060 66.558,91.924 67.370 C 91.867 67.712,91.725 68.049,91.609 68.120 C 91.494 68.192,91.265 68.608,91.101 69.045 C 90.937 69.482,90.708 69.935,90.590 70.052 C 90.473 70.170,90.320 70.450,90.251 70.674 C 90.182 70.899,89.909 71.406,89.646 71.800 C 89.382 72.194,89.167 72.580,89.167 72.657 C 89.167 72.805,88.736 73.371,87.032 75.461 C 85.557 77.270,85.062 77.767,83.508 79.000 C 82.757 79.596,81.881 80.301,81.561 80.568 C 80.943 81.083,80.419 81.400,79.083 82.065 C 78.625 82.293,78.025 82.634,77.750 82.822 C 77.475 83.010,77.129 83.165,76.981 83.166 C 76.833 83.166,76.533 83.306,76.314 83.477 C 76.096 83.648,75.467 83.914,74.917 84.068 C 74.367 84.222,73.579 84.489,73.167 84.660 C 72.754 84.831,71.779 85.061,71.000 85.171 C 70.221 85.281,68.696 85.513,67.612 85.686 C 65.143 86.079,64.385 86.079,62.182 85.682 C 61.211 85.507,59.779 85.276,59.001 85.167 C 58.222 85.059,57.322 84.857,57.001 84.719 C 56.679 84.580,55.967 84.335,55.417 84.173 C 54.867 84.012,54.118 83.719,53.752 83.523 C 53.387 83.327,52.967 83.167,52.819 83.167 C 52.671 83.167,52.220 82.943,51.817 82.670 C 51.413 82.396,51.003 82.171,50.905 82.170 C 50.806 82.168,50.431 81.944,50.071 81.671 C 49.711 81.399,49.352 81.174,49.272 81.171 C 49.192 81.169,48.883 80.960,48.585 80.708 C 48.287 80.456,47.615 79.950,47.091 79.583 C 45.949 78.785,42.500 75.337,42.500 74.994 C 42.500 74.933,42.331 74.687,42.125 74.448 C 41.175 73.348,39.667 71.100,39.667 70.783 C 39.667 70.659,39.450 70.226,39.185 69.820 C 38.920 69.415,38.649 68.832,38.584 68.524 C 38.519 68.216,38.286 67.699,38.066 67.376 C 37.846 67.052,37.667 66.604,37.667 66.380 C 37.667 66.156,37.476 65.421,37.243 64.746 C 37.011 64.072,36.713 62.634,36.582 61.552 C 36.450 60.469,36.294 59.171,36.233 58.667 C 36.033 56.998,36.037 57.000,31.825 57.000 C 28.653 57.000,28.179 57.034,27.979 57.277 C 27.623 57.709,27.755 61.080,28.192 62.750 C 28.384 63.483,28.634 64.683,28.748 65.417 C 28.862 66.150,29.066 67.012,29.202 67.333 C 29.337 67.654,29.543 68.329,29.661 68.833 C 29.778 69.337,30.006 69.975,30.166 70.250 C 30.327 70.525,30.587 71.144,30.743 71.625 C 30.899 72.106,31.094 72.500,31.175 72.500 C 31.257 72.500,31.440 72.900,31.583 73.390 C 31.725 73.879,32.027 74.531,32.254 74.839 C 32.481 75.146,32.667 75.477,32.667 75.574 C 32.667 75.671,32.888 76.008,33.157 76.322 C 33.426 76.637,33.692 77.079,33.749 77.304 C 33.805 77.528,34.241 78.183,34.717 78.759 C 35.194 79.334,35.958 80.297,36.417 80.899 C 37.359 82.137,39.825 84.584,41.137 85.583 C 41.619 85.950,42.541 86.681,43.188 87.208 C 43.835 87.735,44.463 88.167,44.586 88.167 C 44.708 88.167,45.020 88.345,45.279 88.563 C 45.761 88.968,46.509 89.389,47.833 90.002 C 48.246 90.192,48.696 90.421,48.833 90.511 C 48.971 90.600,49.346 90.789,49.667 90.931 C 49.987 91.072,50.625 91.365,51.083 91.581 C 51.542 91.796,52.284 92.058,52.734 92.162 C 53.183 92.266,53.770 92.464,54.038 92.603 C 54.306 92.741,55.026 92.954,55.637 93.074 C 56.249 93.195,57.387 93.471,58.167 93.689 C 60.434 94.320,69.764 94.284,71.750 93.635 C 72.483 93.396,73.565 93.150,74.154 93.088 C 74.743 93.027,75.498 92.838,75.831 92.668 C 76.164 92.498,76.910 92.236,77.490 92.086 C 78.069 91.936,78.703 91.708,78.899 91.580 C 79.095 91.451,79.588 91.229,79.994 91.085 C 80.401 90.942,80.850 90.728,80.992 90.609 C 81.957 89.804,82.351 89.763,89.790 89.705 L 96.829 89.650 97.248 89.101 L 97.667 88.552 97.668 81.901 C 97.670 74.735,97.718 74.264,98.571 73.004 C 98.790 72.681,99.018 72.176,99.079 71.883 C 99.140 71.589,99.336 71.163,99.515 70.935 C 99.694 70.708,99.919 70.099,100.014 69.583 C 100.110 69.067,100.360 68.321,100.570 67.925 C 100.803 67.488,100.999 66.744,101.069 66.029 C 101.133 65.382,101.339 64.418,101.527 63.885 C 102.226 61.903,102.267 53.229,101.590 50.333 C 101.451 49.737,101.225 48.708,101.088 48.045 C 100.952 47.382,100.651 46.390,100.420 45.841 C 100.189 45.292,100.000 44.680,100.000 44.480 C 100.000 44.108,99.404 42.756,98.264 40.542 C 98.134 40.290,97.943 39.896,97.840 39.667 C 97.550 39.025,96.830 37.779,96.589 37.500 C 96.470 37.362,96.213 36.950,96.019 36.583 C 95.576 35.748,95.027 35.018,94.542 34.618 C 94.335 34.448,94.167 34.239,94.167 34.152 C 94.167 33.531,88.330 27.667,87.711 27.667 C 87.621 27.667,87.408 27.482,87.238 27.256 C 87.068 27.029,86.720 26.758,86.465 26.652 C 86.209 26.546,86.000 26.404,86.000 26.336 C 86.000 26.268,85.625 26.035,85.167 25.817 C 84.708 25.599,84.333 25.366,84.333 25.297 C 84.333 25.229,84.015 25.013,83.625 24.817 C 83.235 24.621,82.804 24.363,82.667 24.243 C 82.529 24.122,82.042 23.897,81.583 23.741 C 81.125 23.586,80.571 23.318,80.353 23.146 C 80.134 22.974,79.834 22.833,79.686 22.833 C 79.538 22.833,78.941 22.608,78.360 22.333 C 77.779 22.058,77.197 21.833,77.068 21.833 C 76.939 21.833,76.209 21.617,75.447 21.353 C 74.685 21.089,73.586 20.818,73.004 20.750 C 72.422 20.683,71.452 20.471,70.848 20.280 C 69.315 19.795,28.414 19.610,27.937 20.086 M126.979 37.109 C 126.723 37.417,126.625 78.638,126.878 79.542 L 127.006 80.000 137.147 80.000 L 147.289 80.000 149.186 79.584 C 151.695 79.034,152.333 78.850,152.333 78.673 C 152.333 78.592,152.596 78.439,152.917 78.333 C 153.484 78.146,156.500 75.769,156.500 75.509 C 156.500 75.437,156.706 75.109,156.958 74.778 C 157.805 73.667,158.300 72.756,158.578 71.796 C 158.730 71.272,158.981 70.597,159.136 70.296 C 159.587 69.420,159.563 47.363,159.111 46.500 C 158.942 46.179,158.695 45.504,158.561 45.000 C 158.015 42.942,155.176 39.619,153.148 38.663 C 152.746 38.474,152.192 38.195,151.917 38.044 C 151.642 37.893,150.967 37.677,150.417 37.563 C 149.867 37.449,148.967 37.241,148.417 37.101 C 146.847 36.700,127.312 36.707,126.979 37.109 M168.837 37.163 C 168.378 37.622,168.374 79.547,168.833 79.837 C 169.230 80.088,175.951 80.046,176.115 79.792 C 176.189 79.677,176.287 75.983,176.333 71.583 L 176.417 63.583 180.372 63.539 C 184.863 63.488,184.804 63.471,185.171 64.866 C 185.275 65.261,185.473 65.760,185.612 65.975 C 185.750 66.190,186.002 66.772,186.173 67.268 C 186.343 67.764,186.599 68.335,186.741 68.538 C 186.884 68.741,187.001 69.022,187.002 69.162 C 187.003 69.302,187.222 69.846,187.488 70.370 C 187.754 70.894,188.022 71.569,188.084 71.870 C 188.146 72.171,188.368 72.682,188.578 73.006 C 188.787 73.331,189.015 73.854,189.084 74.168 C 189.153 74.483,189.416 75.155,189.668 75.662 C 189.920 76.169,190.179 76.808,190.243 77.083 C 190.307 77.358,190.456 77.696,190.574 77.833 C 190.691 77.971,190.922 78.443,191.086 78.883 C 191.504 80.002,191.548 80.013,195.454 79.962 L 198.917 79.917 198.969 79.195 C 199.008 78.647,198.898 78.239,198.510 77.494 C 198.230 76.955,198.000 76.409,198.000 76.282 C 198.000 76.154,197.813 75.697,197.583 75.266 C 197.354 74.835,197.167 74.387,197.167 74.269 C 197.167 74.152,196.974 73.688,196.739 73.237 C 196.504 72.786,196.196 72.042,196.054 71.583 C 195.912 71.125,195.665 70.563,195.504 70.333 C 195.344 70.104,195.160 69.626,195.095 69.271 C 195.030 68.915,194.802 68.353,194.587 68.021 C 194.373 67.689,194.145 67.167,194.082 66.861 C 194.019 66.555,193.750 65.891,193.484 65.386 C 192.809 64.102,192.961 63.170,193.846 63.166 C 193.977 63.165,194.308 63.015,194.583 62.833 C 194.858 62.651,195.201 62.502,195.345 62.501 C 195.489 62.500,195.840 62.294,196.126 62.042 C 196.411 61.790,196.858 61.396,197.120 61.167 C 199.248 59.299,199.500 58.124,199.500 50.078 C 199.500 42.168,199.432 41.790,197.602 39.571 C 196.905 38.725,195.543 37.880,194.052 37.367 L 192.750 36.919 180.964 36.871 C 169.284 36.823,169.174 36.826,168.837 37.163 M214.500 37.313 C 211.280 38.247,209.417 40.255,208.846 43.406 C 208.598 44.772,208.598 72.063,208.846 73.428 C 209.188 75.309,210.612 77.706,211.797 78.394 C 214.436 79.926,214.989 79.996,224.333 79.994 C 229.387 79.993,232.491 79.928,232.917 79.815 C 233.283 79.718,234.018 79.538,234.549 79.416 C 235.927 79.100,238.333 77.190,238.577 76.217 C 238.633 75.991,238.870 75.519,239.102 75.168 C 239.735 74.212,239.823 72.157,239.823 58.417 C 239.823 45.894,239.710 42.508,239.274 42.026 C 239.136 41.874,238.870 41.390,238.681 40.951 C 238.235 39.910,236.406 38.111,235.454 37.778 C 232.713 36.818,232.881 36.831,224.167 36.843 L 216.083 36.854 214.500 37.313 M249.645 37.109 C 249.285 37.543,249.306 79.609,249.667 79.837 C 250.147 80.140,256.426 80.040,256.688 79.725 C 256.876 79.498,256.932 77.185,257.000 66.802 C 257.072 55.802,257.116 54.134,257.333 53.996 C 257.679 53.778,258.167 53.794,258.167 54.023 C 258.167 54.303,258.872 55.667,259.017 55.667 C 259.085 55.667,259.231 55.948,259.341 56.292 C 259.451 56.635,259.708 57.142,259.912 57.417 C 260.116 57.692,260.372 58.189,260.481 58.522 C 260.590 58.854,260.820 59.253,260.991 59.409 C 261.163 59.564,261.353 59.892,261.415 60.137 C 261.476 60.383,261.697 60.808,261.906 61.083 C 262.115 61.358,262.342 61.763,262.411 61.982 C 262.481 62.202,262.754 62.723,263.019 63.140 C 263.283 63.557,263.500 63.991,263.500 64.104 C 263.500 64.217,263.616 64.425,263.757 64.567 C 263.898 64.708,264.202 65.219,264.431 65.703 C 264.661 66.187,265.106 67.033,265.420 67.583 C 265.734 68.133,266.184 68.958,266.419 69.417 C 266.655 69.875,267.100 70.700,267.410 71.250 C 267.719 71.800,268.166 72.625,268.403 73.083 C 268.641 73.542,269.088 74.367,269.398 74.917 C 269.708 75.467,270.124 76.251,270.321 76.661 C 270.518 77.070,270.783 77.520,270.910 77.661 C 271.037 77.801,271.192 78.122,271.255 78.373 C 271.317 78.624,271.640 79.093,271.971 79.415 L 272.574 80.000 276.291 80.000 L 280.008 80.000 280.171 79.572 C 280.507 78.689,280.380 37.595,280.040 37.175 C 279.684 36.735,273.401 36.698,272.966 37.133 C 272.794 37.305,272.733 39.939,272.667 49.983 C 272.580 63.103,272.577 63.167,271.918 63.167 C 271.804 63.167,271.547 62.810,271.346 62.375 C 270.798 61.187,270.046 59.777,269.833 59.537 C 269.729 59.419,269.489 58.950,269.300 58.495 C 269.110 58.039,268.899 57.667,268.829 57.667 C 268.760 57.667,268.580 57.359,268.429 56.983 C 268.279 56.607,267.971 56.028,267.745 55.695 C 267.518 55.362,267.333 54.998,267.333 54.886 C 267.333 54.775,267.114 54.358,266.845 53.960 C 266.577 53.563,266.306 53.034,266.244 52.785 C 266.182 52.537,266.067 52.333,265.990 52.333 C 265.912 52.333,265.698 51.993,265.514 51.576 C 265.330 51.159,265.036 50.616,264.861 50.368 C 264.687 50.120,264.488 49.729,264.419 49.500 C 264.351 49.271,264.116 48.845,263.897 48.553 C 263.679 48.261,263.500 47.948,263.500 47.858 C 263.500 47.627,262.940 46.669,262.805 46.668 C 262.743 46.667,262.600 46.385,262.488 46.042 C 262.375 45.698,262.115 45.192,261.911 44.917 C 261.706 44.642,261.484 44.229,261.417 44.000 C 261.350 43.771,261.127 43.358,260.923 43.083 C 260.718 42.808,260.458 42.302,260.346 41.958 C 260.233 41.615,260.081 41.333,260.009 41.333 C 259.936 41.333,259.673 40.902,259.423 40.375 C 258.525 38.480,258.075 37.716,257.601 37.278 L 257.118 36.833 253.496 36.833 C 250.330 36.833,249.845 36.868,249.645 37.109 M290.363 36.971 C 290.242 37.052,290.075 37.410,289.992 37.767 C 289.751 38.808,289.807 78.618,290.051 79.333 L 290.250 79.917 293.417 79.966 C 295.158 79.992,296.827 79.970,297.125 79.916 L 297.667 79.818 297.667 58.502 C 297.667 41.633,297.623 37.158,297.458 37.052 C 297.169 36.865,290.635 36.791,290.363 36.971 M307.667 36.953 C 307.529 37.006,307.362 37.132,307.294 37.233 C 307.015 37.651,307.147 79.457,307.429 79.738 C 307.736 80.045,334.684 80.141,335.167 79.837 C 335.497 79.629,335.640 72.953,335.323 72.570 C 335.157 72.370,333.586 72.333,325.255 72.333 C 315.905 72.333,315.370 72.317,315.109 72.029 C 314.707 71.584,314.692 63.109,315.093 62.537 L 315.352 62.167 325.134 62.164 C 330.997 62.163,335.017 62.098,335.167 62.004 C 335.497 61.795,335.640 55.120,335.323 54.737 C 335.157 54.537,333.586 54.500,325.255 54.500 C 315.905 54.500,315.370 54.484,315.109 54.195 C 314.741 53.789,314.686 45.163,315.050 44.861 C 315.198 44.739,318.421 44.666,325.223 44.632 C 333.852 44.590,335.201 44.550,335.342 44.333 C 335.540 44.031,335.480 37.257,335.278 37.055 C 335.123 36.901,308.061 36.801,307.667 36.953 M349.822 37.302 C 348.613 37.612,347.881 37.899,347.488 38.216 C 345.708 39.658,344.769 40.935,344.506 42.273 C 344.418 42.719,344.268 43.345,344.173 43.666 C 343.787 44.963,343.955 54.482,344.394 56.204 C 345.040 58.736,347.011 61.073,348.849 61.485 C 349.254 61.576,349.864 61.766,350.204 61.908 C 350.731 62.128,351.918 62.167,358.203 62.169 C 368.285 62.173,367.389 61.719,367.473 66.858 C 367.570 72.751,368.667 72.225,356.035 72.333 C 347.643 72.405,346.299 72.451,346.163 72.667 C 345.954 72.998,345.954 78.426,346.164 79.156 C 346.411 80.020,346.109 79.995,356.436 79.997 L 366.122 80.000 367.965 79.584 C 369.993 79.126,370.667 78.909,370.667 78.711 C 370.667 78.640,370.910 78.477,371.208 78.349 C 372.045 77.991,373.931 75.946,374.268 75.032 C 374.427 74.602,374.661 74.126,374.790 73.974 C 375.415 73.235,375.549 62.521,374.955 60.833 C 374.362 59.149,374.221 58.856,373.746 58.306 C 373.473 57.990,373.065 57.485,372.838 57.184 C 372.612 56.883,372.143 56.491,371.797 56.315 C 371.450 56.138,371.167 55.923,371.167 55.836 C 371.167 55.750,370.848 55.598,370.458 55.498 C 370.069 55.399,369.375 55.153,368.917 54.952 C 368.106 54.598,367.879 54.586,360.667 54.540 C 352.122 54.486,352.698 54.546,352.116 53.657 L 351.667 52.970 351.667 49.544 L 351.667 46.118 352.256 45.398 L 352.845 44.679 362.731 44.631 C 371.013 44.591,372.662 44.545,372.903 44.345 C 373.276 44.035,373.243 37.508,372.867 37.133 C 372.694 36.961,370.494 36.910,362.117 36.884 L 351.583 36.851 349.822 37.302 M148.548 45.019 C 149.762 45.628,150.302 46.140,150.952 47.296 L 151.583 48.417 151.633 57.795 C 151.664 63.777,151.620 67.513,151.509 68.109 C 151.179 69.894,149.654 71.569,147.869 72.106 C 146.686 72.462,135.385 72.434,134.870 72.074 L 134.500 71.814 134.500 58.441 C 134.500 48.261,134.548 45.019,134.700 44.867 C 135.110 44.457,147.704 44.595,148.548 45.019 M191.511 44.839 C 191.987 45.094,192.016 55.209,191.542 55.439 C 190.892 55.754,176.778 55.711,176.546 55.393 C 176.323 55.089,176.221 45.486,176.434 44.930 C 176.558 44.609,190.919 44.523,191.511 44.839 M230.964 44.927 C 231.858 45.553,231.833 45.168,231.833 58.484 C 231.833 67.352,231.780 70.935,231.644 71.234 C 231.210 72.186,230.804 72.245,224.333 72.303 C 217.529 72.363,217.355 72.339,216.792 71.285 L 216.417 70.583 216.417 58.417 C 216.417 45.336,216.383 45.908,217.208 44.875 C 217.484 44.529,230.466 44.578,230.964 44.927 M66.948 48.316 C 68.561 48.708,69.036 48.891,69.319 49.233 C 69.441 49.380,69.651 49.500,69.787 49.500 C 70.082 49.500,72.333 51.638,72.333 51.918 C 72.333 52.026,72.484 52.251,72.668 52.418 C 72.852 52.585,73.086 53.027,73.188 53.402 C 73.290 53.777,73.523 54.561,73.707 55.145 C 74.063 56.277,74.070 58.585,73.719 59.032 C 73.625 59.152,73.457 59.625,73.345 60.083 C 73.004 61.484,71.263 63.764,70.059 64.386 C 69.797 64.522,69.440 64.790,69.265 64.983 C 69.091 65.176,68.775 65.333,68.564 65.333 C 68.352 65.333,67.745 65.501,67.215 65.705 C 65.495 66.368,61.765 65.865,60.270 64.769 C 56.187 61.775,54.738 56.321,57.102 52.841 C 57.321 52.519,57.500 52.171,57.500 52.066 C 57.500 51.226,61.118 48.672,62.667 48.419 C 63.079 48.351,63.529 48.232,63.667 48.153 C 64.091 47.911,65.583 47.985,66.948 48.316 " stroke="none" fill="#f5f5f5" fill-rule="evenodd"></path><path id="path1" d="M0.000 57.417 L 0.000 114.833 200.000 114.833 L 400.000 114.833 400.000 57.417 L 400.000 0.000 200.000 0.000 L 0.000 0.000 0.000 57.417 M70.848 20.280 C 71.452 20.471,72.422 20.683,73.004 20.750 C 73.586 20.818,74.685 21.089,75.447 21.353 C 76.209 21.617,76.939 21.833,77.068 21.833 C 77.197 21.833,77.779 22.058,78.360 22.333 C 78.941 22.608,79.538 22.833,79.686 22.833 C 79.834 22.833,80.134 22.974,80.353 23.146 C 80.571 23.318,81.125 23.586,81.583 23.741 C 82.042 23.897,82.529 24.122,82.667 24.243 C 82.804 24.363,83.235 24.621,83.625 24.817 C 84.015 25.013,84.333 25.229,84.333 25.297 C 84.333 25.366,84.708 25.599,85.167 25.817 C 85.625 26.035,86.000 26.268,86.000 26.336 C 86.000 26.404,86.209 26.546,86.465 26.652 C 86.720 26.758,87.068 27.029,87.238 27.256 C 87.408 27.482,87.621 27.667,87.711 27.667 C 88.330 27.667,94.167 33.531,94.167 34.152 C 94.167 34.239,94.335 34.448,94.542 34.618 C 95.027 35.018,95.576 35.748,96.019 36.583 C 96.213 36.950,96.470 37.362,96.589 37.500 C 96.830 37.779,97.550 39.025,97.840 39.667 C 97.943 39.896,98.134 40.290,98.264 40.542 C 99.404 42.756,100.000 44.108,100.000 44.480 C 100.000 44.680,100.189 45.292,100.420 45.841 C 100.651 46.390,100.952 47.382,101.088 48.045 C 101.225 48.708,101.451 49.737,101.590 50.333 C 102.267 53.229,102.226 61.903,101.527 63.885 C 101.339 64.418,101.133 65.382,101.069 66.029 C 100.999 66.744,100.803 67.488,100.570 67.925 C 100.360 68.321,100.110 69.067,100.014 69.583 C 99.919 70.099,99.694 70.708,99.515 70.935 C 99.336 71.163,99.140 71.589,99.079 71.883 C 99.018 72.176,98.790 72.681,98.571 73.004 C 97.718 74.264,97.670 74.735,97.668 81.901 L 97.667 88.552 97.248 89.101 L 96.829 89.650 89.790 89.705 C 82.351 89.763,81.957 89.804,80.992 90.609 C 80.850 90.728,80.401 90.942,79.994 91.085 C 79.588 91.229,79.095 91.451,78.899 91.580 C 78.703 91.708,78.069 91.936,77.490 92.086 C 76.910 92.236,76.164 92.498,75.831 92.668 C 75.498 92.838,74.743 93.027,74.154 93.088 C 73.565 93.150,72.483 93.396,71.750 93.635 C 69.764 94.284,60.434 94.320,58.167 93.689 C 57.387 93.471,56.249 93.195,55.637 93.074 C 55.026 92.954,54.306 92.741,54.038 92.603 C 53.770 92.464,53.183 92.266,52.734 92.162 C 52.284 92.058,51.542 91.796,51.083 91.581 C 50.625 91.365,49.987 91.072,49.667 90.931 C 49.346 90.789,48.971 90.600,48.833 90.511 C 48.696 90.421,48.246 90.192,47.833 90.002 C 46.509 89.389,45.761 88.968,45.279 88.563 C 45.020 88.345,44.708 88.167,44.586 88.167 C 44.463 88.167,43.835 87.735,43.188 87.208 C 42.541 86.681,41.619 85.950,41.137 85.583 C 39.825 84.584,37.359 82.137,36.417 80.899 C 35.958 80.297,35.194 79.334,34.717 78.759 C 34.241 78.183,33.805 77.528,33.749 77.304 C 33.692 77.079,33.426 76.637,33.157 76.322 C 32.888 76.008,32.667 75.671,32.667 75.574 C 32.667 75.477,32.481 75.146,32.254 74.839 C 32.027 74.531,31.725 73.879,31.583 73.390 C 31.440 72.900,31.257 72.500,31.175 72.500 C 31.094 72.500,30.899 72.106,30.743 71.625 C 30.587 71.144,30.327 70.525,30.166 70.250 C 30.006 69.975,29.778 69.337,29.661 68.833 C 29.543 68.329,29.337 67.654,29.202 67.333 C 29.066 67.012,28.862 66.150,28.748 65.417 C 28.634 64.683,28.384 63.483,28.192 62.750 C 27.755 61.080,27.623 57.709,27.979 57.277 C 28.179 57.034,28.653 57.000,31.825 57.000 C 36.037 57.000,36.033 56.998,36.233 58.667 C 36.294 59.171,36.450 60.469,36.582 61.552 C 36.713 62.634,37.011 64.072,37.243 64.746 C 37.476 65.421,37.667 66.156,37.667 66.380 C 37.667 66.604,37.846 67.052,38.066 67.376 C 38.286 67.699,38.519 68.216,38.584 68.524 C 38.649 68.832,38.920 69.415,39.185 69.820 C 39.450 70.226,39.667 70.659,39.667 70.783 C 39.667 71.100,41.175 73.348,42.125 74.448 C 42.331 74.687,42.500 74.933,42.500 74.994 C 42.500 75.337,45.949 78.785,47.091 79.583 C 47.615 79.950,48.287 80.456,48.585 80.708 C 48.883 80.960,49.192 81.169,49.272 81.171 C 49.352 81.174,49.711 81.399,50.071 81.671 C 50.431 81.944,50.806 82.168,50.905 82.170 C 51.003 82.171,51.413 82.396,51.817 82.670 C 52.220 82.943,52.671 83.167,52.819 83.167 C 52.967 83.167,53.387 83.327,53.752 83.523 C 54.118 83.719,54.867 84.012,55.417 84.173 C 55.967 84.335,56.679 84.580,57.001 84.719 C 57.322 84.857,58.222 85.059,59.001 85.167 C 59.779 85.276,61.211 85.507,62.182 85.682 C 64.385 86.079,65.143 86.079,67.612 85.686 C 68.696 85.513,70.221 85.281,71.000 85.171 C 71.779 85.061,72.754 84.831,73.167 84.660 C 73.579 84.489,74.367 84.222,74.917 84.068 C 75.467 83.914,76.096 83.648,76.314 83.477 C 76.533 83.306,76.833 83.166,76.981 83.166 C 77.129 83.165,77.475 83.010,77.750 82.822 C 78.025 82.634,78.625 82.293,79.083 82.065 C 80.419 81.400,80.943 81.083,81.561 80.568 C 81.881 80.301,82.757 79.596,83.508 79.000 C 85.062 77.767,85.557 77.270,87.032 75.461 C 88.736 73.371,89.167 72.805,89.167 72.657 C 89.167 72.580,89.382 72.194,89.646 71.800 C 89.909 71.406,90.182 70.899,90.251 70.674 C 90.320 70.450,90.473 70.170,90.590 70.052 C 90.708 69.935,90.937 69.482,91.101 69.045 C 91.265 68.608,91.494 68.192,91.609 68.120 C 91.725 68.049,91.867 67.712,91.924 67.370 C 92.060 66.558,92.503 65.135,92.697 64.890 C 92.781 64.783,92.995 63.696,93.173 62.473 C 93.351 61.250,93.573 59.748,93.665 59.135 C 93.898 57.590,93.875 56.058,93.593 54.271 C 93.461 53.434,93.236 52.000,93.093 51.083 C 92.950 50.167,92.647 48.967,92.420 48.417 C 92.194 47.867,92.006 47.267,92.003 47.083 C 92.001 46.900,91.846 46.499,91.658 46.192 C 91.471 45.885,91.200 45.285,91.055 44.859 C 90.910 44.432,90.651 43.904,90.479 43.686 C 90.307 43.467,90.167 43.217,90.167 43.131 C 90.167 43.044,89.904 42.578,89.583 42.094 C 89.263 41.611,89.000 41.130,89.000 41.024 C 89.000 40.919,88.939 40.833,88.865 40.833 C 88.741 40.833,88.193 40.144,87.167 38.693 C 86.625 37.928,83.917 35.242,83.167 34.725 C 82.185 34.050,81.433 33.493,81.083 33.183 C 80.900 33.020,80.509 32.792,80.214 32.676 C 79.919 32.559,79.595 32.364,79.493 32.242 C 79.261 31.962,77.284 30.952,76.410 30.667 C 76.047 30.548,75.571 30.312,75.353 30.142 C 75.134 29.972,74.796 29.833,74.603 29.832 C 74.185 29.829,72.831 29.433,72.336 29.168 C 71.233 28.578,68.323 28.441,55.542 28.382 L 43.000 28.323 43.000 28.787 C 43.000 29.261,54.701 41.187,55.626 41.656 C 56.059 41.875,57.129 41.634,57.833 41.158 C 58.063 41.004,58.400 40.836,58.583 40.786 C 58.767 40.737,59.694 40.455,60.644 40.161 L 62.370 39.627 65.394 39.707 C 67.972 39.775,68.527 39.837,69.167 40.127 C 69.579 40.315,70.348 40.556,70.875 40.663 C 71.402 40.769,71.935 40.959,72.059 41.083 C 72.183 41.207,72.539 41.427,72.851 41.571 C 75.647 42.867,80.333 47.477,80.333 48.930 C 80.333 49.036,80.490 49.322,80.683 49.566 C 80.875 49.810,81.141 50.476,81.274 51.046 C 81.406 51.615,81.634 52.264,81.780 52.486 C 82.410 53.447,82.409 60.719,81.780 61.682 C 81.635 61.903,81.402 62.526,81.261 63.068 C 81.120 63.609,80.888 64.181,80.744 64.340 C 80.601 64.498,80.408 64.903,80.315 65.241 C 80.221 65.579,80.004 65.996,79.831 66.169 C 79.659 66.341,79.395 66.720,79.245 67.010 C 78.181 69.067,73.074 72.916,70.750 73.413 C 70.475 73.471,69.942 73.667,69.566 73.846 C 67.954 74.616,62.059 74.547,60.131 73.735 C 59.606 73.514,58.998 73.333,58.780 73.333 C 58.562 73.333,58.053 73.110,57.650 72.836 C 57.247 72.563,56.839 72.338,56.744 72.336 C 55.873 72.321,50.500 67.522,50.500 66.760 C 50.500 66.696,50.285 66.330,50.023 65.947 C 49.760 65.564,49.487 65.064,49.416 64.837 C 49.345 64.609,49.147 64.234,48.978 64.003 C 48.808 63.772,48.587 63.140,48.488 62.599 C 48.388 62.057,48.199 61.450,48.067 61.249 C 47.377 60.196,47.395 54.843,48.096 52.696 C 48.318 52.015,48.500 51.366,48.500 51.254 C 48.500 51.141,48.694 50.685,48.930 50.240 C 49.706 48.781,49.889 48.053,49.590 47.622 C 49.447 47.418,44.540 42.450,38.685 36.583 C 32.829 30.717,27.955 25.753,27.852 25.553 C 27.536 24.933,27.607 20.417,27.937 20.086 C 28.414 19.610,69.315 19.795,70.848 20.280 M148.417 37.101 C 148.967 37.241,149.867 37.449,150.417 37.563 C 150.967 37.677,151.642 37.893,151.917 38.044 C 152.192 38.195,152.746 38.474,153.148 38.663 C 155.176 39.619,158.015 42.942,158.561 45.000 C 158.695 45.504,158.942 46.179,159.111 46.500 C 159.563 47.363,159.587 69.420,159.136 70.296 C 158.981 70.597,158.730 71.272,158.578 71.796 C 158.300 72.756,157.805 73.667,156.958 74.778 C 156.706 75.109,156.500 75.437,156.500 75.509 C 156.500 75.769,153.484 78.146,152.917 78.333 C 152.596 78.439,152.333 78.592,152.333 78.673 C 152.333 78.850,151.695 79.034,149.186 79.584 L 147.289 80.000 137.147 80.000 L 127.006 80.000 126.878 79.542 C 126.625 78.638,126.723 37.417,126.979 37.109 C 127.312 36.707,146.847 36.700,148.417 37.101 M194.052 37.367 C 195.543 37.880,196.905 38.725,197.602 39.571 C 199.432 41.790,199.500 42.168,199.500 50.078 C 199.500 58.124,199.248 59.299,197.120 61.167 C 196.858 61.396,196.411 61.790,196.126 62.042 C 195.840 62.294,195.489 62.500,195.345 62.501 C 195.201 62.502,194.858 62.651,194.583 62.833 C 194.308 63.015,193.977 63.165,193.846 63.166 C 192.961 63.170,192.809 64.102,193.484 65.386 C 193.750 65.891,194.019 66.555,194.082 66.861 C 194.145 67.167,194.373 67.689,194.587 68.021 C 194.802 68.353,195.030 68.915,195.095 69.271 C 195.160 69.626,195.344 70.104,195.504 70.333 C 195.665 70.563,195.912 71.125,196.054 71.583 C 196.196 72.042,196.504 72.786,196.739 73.237 C 196.974 73.688,197.167 74.152,197.167 74.269 C 197.167 74.387,197.354 74.835,197.583 75.266 C 197.813 75.697,198.000 76.154,198.000 76.282 C 198.000 76.409,198.230 76.955,198.510 77.494 C 198.898 78.239,199.008 78.647,198.969 79.195 L 198.917 79.917 195.454 79.962 C 191.548 80.013,191.504 80.002,191.086 78.883 C 190.922 78.443,190.691 77.971,190.574 77.833 C 190.456 77.696,190.307 77.358,190.243 77.083 C 190.179 76.808,189.920 76.169,189.668 75.662 C 189.416 75.155,189.153 74.483,189.084 74.168 C 189.015 73.854,188.787 73.331,188.578 73.006 C 188.368 72.682,188.146 72.171,188.084 71.870 C 188.022 71.569,187.754 70.894,187.488 70.370 C 187.222 69.846,187.003 69.302,187.002 69.162 C 187.001 69.022,186.884 68.741,186.741 68.538 C 186.599 68.335,186.343 67.764,186.173 67.268 C 186.002 66.772,185.750 66.190,185.612 65.975 C 185.473 65.760,185.275 65.261,185.171 64.866 C 184.804 63.471,184.863 63.488,180.372 63.539 L 176.417 63.583 176.333 71.583 C 176.287 75.983,176.189 79.677,176.115 79.792 C 175.951 80.046,169.230 80.088,168.833 79.837 C 168.374 79.547,168.378 37.622,168.837 37.163 C 169.174 36.826,169.284 36.823,180.964 36.871 L 192.750 36.919 194.052 37.367 M233.500 37.182 C 234.188 37.374,235.067 37.642,235.454 37.778 C 236.406 38.111,238.235 39.910,238.681 40.951 C 238.870 41.390,239.136 41.874,239.274 42.026 C 239.710 42.508,239.823 45.894,239.823 58.417 C 239.823 72.157,239.735 74.212,239.102 75.168 C 238.870 75.519,238.633 75.991,238.577 76.217 C 238.333 77.190,235.927 79.100,234.549 79.416 C 234.018 79.538,233.283 79.718,232.917 79.815 C 229.923 80.610,214.461 79.905,212.667 78.891 C 212.368 78.722,211.977 78.498,211.797 78.394 C 210.612 77.706,209.188 75.309,208.846 73.428 C 208.598 72.063,208.598 44.772,208.846 43.406 C 209.417 40.255,211.280 38.247,214.500 37.313 L 216.083 36.854 224.167 36.843 C 231.883 36.833,232.307 36.848,233.500 37.182 M257.601 37.278 C 258.075 37.716,258.525 38.480,259.423 40.375 C 259.673 40.902,259.936 41.333,260.009 41.333 C 260.081 41.333,260.233 41.615,260.346 41.958 C 260.458 42.302,260.718 42.808,260.923 43.083 C 261.127 43.358,261.350 43.771,261.417 44.000 C 261.484 44.229,261.706 44.642,261.911 44.917 C 262.115 45.192,262.375 45.698,262.488 46.042 C 262.600 46.385,262.743 46.667,262.805 46.668 C 262.940 46.669,263.500 47.627,263.500 47.858 C 263.500 47.948,263.679 48.261,263.897 48.553 C 264.116 48.845,264.351 49.271,264.419 49.500 C 264.488 49.729,264.687 50.120,264.861 50.368 C 265.036 50.616,265.330 51.159,265.514 51.576 C 265.698 51.993,265.912 52.333,265.990 52.333 C 266.067 52.333,266.182 52.537,266.244 52.785 C 266.306 53.034,266.577 53.563,266.845 53.960 C 267.114 54.358,267.333 54.775,267.333 54.886 C 267.333 54.998,267.518 55.362,267.745 55.695 C 267.971 56.028,268.279 56.607,268.429 56.983 C 268.580 57.359,268.760 57.667,268.829 57.667 C 268.899 57.667,269.110 58.039,269.300 58.495 C 269.489 58.950,269.729 59.419,269.833 59.537 C 270.046 59.777,270.798 61.187,271.346 62.375 C 271.547 62.810,271.804 63.167,271.918 63.167 C 272.577 63.167,272.580 63.103,272.667 49.983 C 272.733 39.939,272.794 37.305,272.966 37.133 C 273.401 36.698,279.684 36.735,280.040 37.175 C 280.380 37.595,280.507 78.689,280.171 79.572 L 280.008 80.000 276.291 80.000 L 272.574 80.000 271.971 79.415 C 271.640 79.093,271.317 78.624,271.255 78.373 C 271.192 78.122,271.037 77.801,270.910 77.661 C 270.783 77.520,270.518 77.070,270.321 76.661 C 270.124 76.251,269.708 75.467,269.398 74.917 C 269.088 74.367,268.641 73.542,268.403 73.083 C 268.166 72.625,267.719 71.800,267.410 71.250 C 267.100 70.700,266.655 69.875,266.419 69.417 C 266.184 68.958,265.734 68.133,265.420 67.583 C 265.106 67.033,264.661 66.187,264.431 65.703 C 264.202 65.219,263.898 64.708,263.757 64.567 C 263.616 64.425,263.500 64.217,263.500 64.104 C 263.500 63.991,263.283 63.557,263.019 63.140 C 262.754 62.723,262.481 62.202,262.411 61.982 C 262.342 61.763,262.115 61.358,261.906 61.083 C 261.697 60.808,261.476 60.383,261.415 60.137 C 261.353 59.892,261.163 59.564,260.991 59.409 C 260.820 59.253,260.590 58.854,260.481 58.522 C 260.372 58.189,260.116 57.692,259.912 57.417 C 259.708 57.142,259.451 56.635,259.341 56.292 C 259.231 55.948,259.085 55.667,259.017 55.667 C 258.872 55.667,258.167 54.303,258.167 54.023 C 258.167 53.794,257.679 53.778,257.333 53.996 C 257.116 54.134,257.072 55.802,257.000 66.802 C 256.932 77.185,256.876 79.498,256.688 79.725 C 256.426 80.040,250.147 80.140,249.667 79.837 C 249.306 79.609,249.285 37.543,249.645 37.109 C 249.845 36.868,250.330 36.833,253.496 36.833 L 257.118 36.833 257.601 37.278 M297.458 37.052 C 297.623 37.158,297.667 41.633,297.667 58.502 L 297.667 79.818 297.125 79.916 C 296.827 79.970,295.158 79.992,293.417 79.966 L 290.250 79.917 290.051 79.333 C 289.807 78.618,289.751 38.808,289.992 37.767 C 290.075 37.410,290.242 37.052,290.363 36.971 C 290.635 36.791,297.169 36.865,297.458 37.052 M335.278 37.055 C 335.480 37.257,335.540 44.031,335.342 44.333 C 335.201 44.550,333.852 44.590,325.223 44.632 C 318.421 44.666,315.198 44.739,315.050 44.861 C 314.686 45.163,314.741 53.789,315.109 54.195 C 315.370 54.484,315.905 54.500,325.255 54.500 C 333.586 54.500,335.157 54.537,335.323 54.737 C 335.640 55.120,335.497 61.795,335.167 62.004 C 335.017 62.098,330.997 62.163,325.134 62.164 L 315.352 62.167 315.093 62.537 C 314.692 63.109,314.707 71.584,315.109 72.029 C 315.370 72.317,315.905 72.333,325.255 72.333 C 333.586 72.333,335.157 72.370,335.323 72.570 C 335.640 72.953,335.497 79.629,335.167 79.837 C 334.684 80.141,307.736 80.045,307.429 79.738 C 307.147 79.457,307.015 37.651,307.294 37.233 C 307.362 37.132,307.529 37.006,307.667 36.953 C 308.061 36.801,335.123 36.901,335.278 37.055 M372.867 37.133 C 373.243 37.508,373.276 44.035,372.903 44.345 C 372.662 44.545,371.013 44.591,362.731 44.631 L 352.845 44.679 352.256 45.398 L 351.667 46.118 351.667 49.544 L 351.667 52.970 352.116 53.657 C 352.698 54.546,352.122 54.486,360.667 54.540 C 367.879 54.586,368.106 54.598,368.917 54.952 C 369.375 55.153,370.069 55.399,370.458 55.498 C 370.848 55.598,371.167 55.750,371.167 55.836 C 371.167 55.923,371.450 56.138,371.797 56.315 C 372.143 56.491,372.612 56.883,372.838 57.184 C 373.065 57.485,373.473 57.990,373.746 58.306 C 374.221 58.856,374.362 59.149,374.955 60.833 C 375.549 62.521,375.415 73.235,374.790 73.974 C 374.661 74.126,374.427 74.602,374.268 75.032 C 373.931 75.946,372.045 77.991,371.208 78.349 C 370.910 78.477,370.667 78.640,370.667 78.711 C 370.667 78.909,369.993 79.126,367.965 79.584 L 366.122 80.000 356.436 79.997 C 346.109 79.995,346.411 80.020,346.164 79.156 C 345.954 78.426,345.954 72.998,346.163 72.667 C 346.299 72.451,347.643 72.405,356.035 72.333 C 368.667 72.225,367.570 72.751,367.473 66.858 C 367.389 61.719,368.285 62.173,358.203 62.169 C 351.918 62.167,350.731 62.128,350.204 61.908 C 349.864 61.766,349.254 61.576,348.849 61.485 C 347.011 61.073,345.040 58.736,344.394 56.204 C 343.955 54.482,343.787 44.963,344.173 43.666 C 344.268 43.345,344.418 42.719,344.506 42.273 C 344.769 40.935,345.708 39.658,347.488 38.216 C 347.881 37.899,348.613 37.612,349.822 37.302 L 351.583 36.851 362.117 36.884 C 370.494 36.910,372.694 36.961,372.867 37.133 M134.700 44.867 C 134.548 45.019,134.500 48.261,134.500 58.441 L 134.500 71.814 134.870 72.074 C 135.385 72.434,146.686 72.462,147.869 72.106 C 149.654 71.569,151.179 69.894,151.509 68.109 C 151.620 67.513,151.664 63.777,151.633 57.795 L 151.583 48.417 150.952 47.296 C 150.302 46.140,149.762 45.628,148.548 45.019 C 147.704 44.595,135.110 44.457,134.700 44.867 M176.434 44.930 C 176.221 45.486,176.323 55.089,176.546 55.393 C 176.778 55.711,190.892 55.754,191.542 55.439 C 192.016 55.209,191.987 45.094,191.511 44.839 C 190.919 44.523,176.558 44.609,176.434 44.930 M217.208 44.875 C 216.383 45.908,216.417 45.336,216.417 58.417 L 216.417 70.583 216.792 71.285 C 217.355 72.339,217.529 72.363,224.333 72.303 C 230.804 72.245,231.210 72.186,231.644 71.234 C 231.964 70.531,231.908 46.294,231.584 45.669 C 231.055 44.644,231.224 44.667,223.983 44.667 C 218.896 44.667,217.336 44.715,217.208 44.875 M63.667 48.153 C 63.529 48.232,63.079 48.351,62.667 48.419 C 61.118 48.672,57.500 51.226,57.500 52.066 C 57.500 52.171,57.321 52.519,57.102 52.841 C 54.738 56.321,56.187 61.775,60.270 64.769 C 61.765 65.865,65.495 66.368,67.215 65.705 C 67.745 65.501,68.352 65.333,68.564 65.333 C 68.775 65.333,69.091 65.176,69.265 64.983 C 69.440 64.790,69.797 64.522,70.059 64.386 C 71.263 63.764,73.004 61.484,73.345 60.083 C 73.457 59.625,73.625 59.152,73.719 59.032 C 74.070 58.585,74.063 56.277,73.707 55.145 C 73.523 54.561,73.290 53.777,73.188 53.402 C 73.086 53.027,72.852 52.585,72.668 52.418 C 72.484 52.251,72.333 52.026,72.333 51.918 C 72.333 51.638,70.082 49.500,69.787 49.500 C 69.651 49.500,69.441 49.380,69.319 49.233 C 68.690 48.475,64.503 47.675,63.667 48.153 " stroke="none" fill="#0c0c0c" fill-rule="evenodd"></path></g></svg>